<svg width="33" height="48" viewBox="0 0 33 48" fill="none" xmlns="http://www.w3.org/2000/svg">
<g clip-path="url(#clip0_252_3398)">
<path d="M32.9128 29.2617V31.3265C32.7643 31.5791 32.7998 31.8649 32.7754 32.1351C32.514 34.982 31.856 37.7181 30.5023 40.2592C28.6901 43.6599 26.0094 46.0349 22.3052 47.1936C19.3409 48.1218 16.3234 48.1772 13.2794 47.7164C12.8408 47.65 12.3733 47.6699 11.9789 47.4062C12.1097 47.1626 11.8615 47.1426 11.7574 47.0695C9.78564 45.676 8.26806 43.8859 7.15812 41.7546C5.79561 39.136 5.04236 36.3356 4.68567 33.409C4.42646 31.28 4.49293 29.1509 4.49957 27.0197C5.09774 27.5403 5.72472 28.0122 6.47576 28.2935C6.48905 28.4508 6.61311 28.5151 6.72167 28.5948C7.12045 28.8851 7.55247 29.1177 7.99777 29.3259C9.94072 30.2321 11.9812 29.5276 13.1864 27.8349C13.9285 26.7893 14.0172 25.6084 13.7956 24.3833C13.6339 23.486 13.3459 22.6242 13.0689 21.7602C12.6835 20.5616 12.4885 19.3254 12.442 18.0714C12.3556 15.7674 13.018 13.6317 13.9884 11.5802C14.6308 10.2221 15.4616 8.97701 16.4386 7.83384C17.2118 6.92993 18.016 6.05705 18.951 5.31044C19.0773 5.20853 19.1991 5.11105 19.3653 5.08668C19.3121 5.22182 19.2656 5.36139 19.2057 5.49432C18.2442 7.63888 17.8477 9.86762 18.2597 12.2049C18.4126 13.0623 18.7161 13.8754 19.3741 14.4802C20.4309 15.4528 22.5223 15.0717 23.3531 13.7801C23.774 13.1288 23.9114 12.3977 23.9247 11.64C23.9335 11.0883 23.8959 10.5345 23.918 9.98283C23.938 9.49321 24.237 9.13874 24.6823 9.00581C25.1432 8.86846 25.5331 8.99252 25.8388 9.35807C26.0426 9.60177 26.2354 9.85876 26.4215 10.118C28.648 13.2063 29.1155 16.4874 27.5403 20.0144C26.9598 21.3127 26.3218 22.5843 25.8078 23.9114C25.316 25.183 24.9792 26.4791 25.1808 27.8637C25.316 28.8053 25.7635 29.2639 26.7028 29.3614C27.6511 29.4589 28.555 29.2395 29.4434 28.9405C30.0592 28.7344 30.6486 28.4597 31.2489 28.2071C32.0288 27.8793 32.6757 28.2426 32.8396 29.0778C32.8529 29.1443 32.8241 29.2307 32.9172 29.2639L32.9128 29.2617Z" fill="#ED7223"/>
<path d="M21.8643 -8.86386e-07C21.933 0.179451 22.108 0.259207 22.2299 0.389919C22.673 0.870672 22.673 1.59291 22.1501 1.98061C21.0535 2.7959 20.1651 3.79064 19.4362 4.93824C19.414 4.97812 19.3941 5.018 19.3719 5.05788L19.3631 5.08446C19.1969 5.10883 19.0751 5.20853 18.9488 5.30822C18.0161 6.05262 17.2097 6.9255 16.4365 7.83162C15.4594 8.9748 14.6287 10.2199 13.9862 11.578C13.0158 13.6295 12.3534 15.7652 12.4398 18.0692C12.4863 19.3232 12.6813 20.5594 13.0668 21.758C13.3437 22.622 13.6317 23.4838 13.7934 24.3811C14.015 25.6084 13.9264 26.787 13.1842 27.8327C11.9812 29.5276 9.93854 30.2299 7.99559 29.3237C7.55028 29.1155 7.11827 28.8829 6.71949 28.5926C6.61093 28.5129 6.48686 28.4486 6.47357 28.2913C8.15953 28.4907 9.2296 27.5713 10.0537 26.2642C10.3794 25.748 10.3329 25.1565 10.1712 24.5849C9.81226 23.3354 9.33151 22.1279 8.87069 20.9139C7.40406 17.0656 7.7541 13.3392 9.58628 9.71033C11.4716 5.97951 14.272 3.1548 17.9851 1.23844C18.8247 0.804209 19.7153 0.49183 20.5927 0.155081C20.7012 0.112987 20.8364 0.119634 20.9028 -0.00221634H21.8599L21.8643 -8.86386e-07Z" fill="#E95717"/>
<path d="M11.979 47.4063C10.4437 47.105 9.03686 46.4868 7.72531 45.6472C4.70122 43.7131 2.80922 40.9128 1.60845 37.5918C0.228221 33.7701 -0.139544 29.8089 0.0443384 25.7768C0.0687084 25.2495 0.0930784 24.72 0.197205 24.2016C0.307977 23.65 0.658019 23.3176 1.17422 23.2423C1.62396 23.1759 2.03382 23.4085 2.29967 23.8981C2.91113 25.0258 3.67103 26.0449 4.49961 27.0197C4.49297 29.1509 4.42429 31.28 4.68571 33.409C5.0424 36.3356 5.79787 39.136 7.15816 41.7546C8.2681 43.8859 9.78568 45.6782 11.7574 47.0695C11.8616 47.1426 12.1097 47.1626 11.979 47.4063Z" fill="#E95717"/>
<path d="M3.60456 18.3617C3.40739 18.6452 3.16147 18.8823 2.89119 19.0972C2.64749 19.2922 2.40379 19.3055 2.16009 19.0972C-0.361097 16.9659 0.130734 13.7912 2.08033 12.2647C2.49684 11.9369 2.6342 11.9435 3.03519 12.2958C3.28111 12.5129 3.56469 12.6968 3.68432 13.0269C2.50791 14.5289 2.50348 16.113 3.33649 17.7635C3.43397 17.9562 3.59792 18.1246 3.60456 18.3595V18.3617Z" fill="#E95717"/>
<path d="M3.60454 18.3617C3.5979 18.1268 3.43395 17.9585 3.33647 17.7657C2.50346 16.1152 2.50789 14.5289 3.6843 13.0291C4.84077 14.2498 4.92274 16.5649 3.85932 18.0537C3.78178 18.1623 3.69095 18.2598 3.60454 18.3617Z" fill="#ED7223"/>
</g>
<defs>
<clipPath id="clip0_252_3398">
<rect width="32.9128" height="48" fill="white"/>
</clipPath>
</defs>
</svg>
