<svg width="518" height="583" viewBox="0 0 518 583" fill="none" xmlns="http://www.w3.org/2000/svg">
<path d="M282 570.594C143.929 570.594 31.9999 458.665 31.9999 320.594L31.9999 262.991C31.9999 124.919 143.929 12.9907 282 12.9907L518 12.9906L518 570.594L282 570.594Z" fill="url(#paint0_radial_252_3385)"/>
<g clip-path="url(#clip0_252_3385)">
<path d="M400 355.408V380.486C398.196 383.554 398.627 387.025 398.331 390.308C395.154 424.886 387.157 458.118 370.705 488.982C348.681 530.286 316.101 559.132 271.082 573.205C235.057 584.48 198.385 585.153 161.389 579.556C156.058 578.748 150.377 578.991 145.584 575.788C147.173 572.829 144.157 572.586 142.892 571.698C118.928 554.773 100.485 533.031 86.9952 507.145C70.4362 475.339 61.2817 441.327 56.9467 405.78C53.7965 379.921 54.6042 354.062 54.685 328.176C61.9548 334.5 69.5746 340.231 78.7022 343.649C78.8638 345.559 80.3716 346.34 81.6909 347.308C86.5375 350.833 91.7879 353.659 97.1998 356.188C120.813 367.194 145.611 358.637 160.259 338.079C169.278 325.378 170.355 311.036 167.663 296.155C165.697 285.257 162.197 274.79 158.831 264.295C154.147 249.738 151.777 234.723 151.212 219.493C150.162 191.508 158.212 165.568 170.005 140.651C177.814 124.156 187.911 109.033 199.785 95.1485C209.182 84.1698 218.955 73.5679 230.318 64.4997C231.852 63.2619 233.333 62.0779 235.353 61.782C234.707 63.4234 234.141 65.1186 233.414 66.7331C221.729 92.7806 216.909 119.851 221.917 148.239C223.775 158.653 227.464 168.528 235.46 175.874C248.304 187.687 273.721 183.059 283.818 167.371C288.934 159.46 290.603 150.58 290.765 141.377C290.872 134.677 290.415 127.95 290.684 121.25C290.926 115.303 294.561 110.998 299.973 109.383C305.574 107.715 310.312 109.222 314.028 113.662C316.505 116.622 318.848 119.743 321.109 122.891C348.169 160.402 353.85 200.253 334.707 243.092C327.652 258.86 319.898 274.305 313.651 290.424C307.674 305.869 303.581 321.611 306.031 338.428C307.674 349.865 313.113 355.435 324.529 356.619C336.053 357.803 347.038 355.139 357.835 351.506C365.32 349.004 372.483 345.667 379.779 342.599C389.257 338.617 397.119 343.03 399.112 353.174C399.273 353.982 398.923 355.031 400.054 355.435L400 355.408Z" fill="#ED7223"/>
<path d="M265.724 -2.32439e-05C266.559 2.17957 268.686 3.14827 270.167 4.73588C275.552 10.575 275.552 19.3472 269.198 24.0562C255.87 33.9585 245.073 46.0405 236.214 59.9791C235.945 60.4634 235.703 60.9478 235.434 61.4321L235.326 61.755C233.306 62.051 231.826 63.2619 230.291 64.4728C218.955 73.514 209.155 84.116 199.758 95.1216C187.884 109.006 177.787 124.129 169.978 140.624C158.185 165.541 150.135 191.481 151.185 219.466C151.75 234.696 154.12 249.711 158.805 264.269C162.17 274.763 165.67 285.23 167.636 296.128C170.328 311.036 169.251 325.351 160.232 338.052C145.611 358.637 120.786 367.167 97.1729 356.161C91.7609 353.632 86.5105 350.806 81.664 347.281C80.3447 346.313 78.8368 345.532 78.6753 343.622C99.1653 346.044 112.17 334.877 122.186 319C126.144 312.731 125.579 305.546 123.613 298.604C119.251 283.427 113.409 268.762 107.808 254.016C89.9839 207.276 94.238 162.016 116.505 117.94C139.418 72.6261 173.452 38.3177 218.578 15.0418C228.783 9.76777 239.607 5.97367 250.269 1.88357C251.589 1.37231 253.231 1.45304 254.039 -0.0269318H265.67L265.724 -2.32439e-05Z" fill="#E95717"/>
<path d="M145.584 575.788C126.925 572.129 109.828 564.621 93.888 554.423C57.1352 530.932 34.1411 496.92 19.5477 456.584C2.7733 410.167 -1.69628 362.054 0.538508 313.081C0.834685 306.676 1.13086 300.245 2.39634 293.949C3.7426 287.248 7.99677 283.212 14.2703 282.297C19.7361 281.49 24.7173 284.315 27.9483 290.262C35.3797 303.959 44.615 316.337 54.685 328.176C54.6042 354.062 53.7695 379.921 56.9467 405.78C61.2816 441.327 70.4631 475.339 86.9952 507.145C100.485 533.031 118.928 554.8 142.892 571.698C144.157 572.586 147.173 572.829 145.584 575.788Z" fill="#E95717"/>
<path d="M43.8072 223.018C41.4109 226.462 38.4222 229.341 35.1373 231.951C32.1755 234.319 29.2138 234.481 26.252 231.951C-4.38882 206.065 1.58856 167.506 25.2827 148.966C30.3446 144.983 32.014 145.064 36.8874 149.342C39.8761 151.979 43.3225 154.213 44.7765 158.222C30.4792 176.466 30.4254 195.706 40.5493 215.753C41.734 218.094 43.7264 220.139 43.8072 222.991V223.018Z" fill="#E95717"/>
<path d="M43.8072 223.018C43.7264 220.166 41.734 218.12 40.5493 215.779C30.4254 195.733 30.4793 176.466 44.7765 158.249C58.8314 173.076 59.8277 201.195 46.9036 219.278C45.9612 220.596 44.8573 221.78 43.8072 223.018Z" fill="#ED7223"/>
</g>
<defs>
<radialGradient id="paint0_radial_252_3385" cx="0" cy="0" r="1" gradientUnits="userSpaceOnUse" gradientTransform="translate(328.365 282.8) rotate(90) scale(307.281 296.365)">
<stop stop-color="#FFF0DB"/>
<stop offset="1" stop-color="#F3BDA5"/>
</radialGradient>
<clipPath id="clip0_252_3385">
<rect width="400" height="583" fill="white"/>
</clipPath>
</defs>
</svg>
