<svg width="213" height="48" viewBox="0 0 213 48" fill="none" xmlns="http://www.w3.org/2000/svg">
<g clip-path="url(#clip0_185_452)">
<path d="M32.9128 29.2617V31.3265C32.7643 31.5791 32.7998 31.8649 32.7754 32.1351C32.514 34.982 31.856 37.7181 30.5023 40.2592C28.6901 43.6599 26.0094 46.0349 22.3052 47.1936C19.3409 48.1218 16.3234 48.1772 13.2794 47.7164C12.8408 47.65 12.3733 47.6699 11.9789 47.4062C12.1097 47.1626 11.8615 47.1426 11.7574 47.0695C9.78564 45.676 8.26806 43.8859 7.15812 41.7546C5.79561 39.136 5.04236 36.3356 4.68567 33.409C4.42646 31.28 4.49293 29.1509 4.49957 27.0197C5.09774 27.5403 5.72472 28.0122 6.47576 28.2935C6.48905 28.4508 6.61311 28.5151 6.72167 28.5948C7.12045 28.8851 7.55247 29.1177 7.99777 29.3259C9.94072 30.2321 11.9812 29.5276 13.1864 27.8349C13.9285 26.7893 14.0172 25.6084 13.7956 24.3833C13.6339 23.486 13.3459 22.6242 13.0689 21.7602C12.6835 20.5616 12.4885 19.3254 12.442 18.0714C12.3556 15.7674 13.018 13.6317 13.9884 11.5802C14.6308 10.2221 15.4616 8.97701 16.4386 7.83384C17.2118 6.92993 18.016 6.05705 18.951 5.31044C19.0773 5.20853 19.1991 5.11105 19.3653 5.08668C19.3121 5.22182 19.2656 5.36139 19.2057 5.49432C18.2442 7.63888 17.8477 9.86762 18.2597 12.2049C18.4126 13.0623 18.7161 13.8754 19.3741 14.4802C20.4309 15.4528 22.5223 15.0717 23.3531 13.7801C23.774 13.1288 23.9114 12.3977 23.9247 11.64C23.9335 11.0883 23.8959 10.5345 23.918 9.98283C23.938 9.49321 24.237 9.13874 24.6823 9.00581C25.1432 8.86846 25.5331 8.99252 25.8388 9.35807C26.0426 9.60177 26.2354 9.85876 26.4215 10.118C28.648 13.2063 29.1155 16.4874 27.5403 20.0144C26.9598 21.3127 26.3218 22.5843 25.8078 23.9114C25.316 25.183 24.9792 26.4791 25.1808 27.8637C25.316 28.8053 25.7635 29.2639 26.7028 29.3614C27.6511 29.4589 28.555 29.2395 29.4434 28.9405C30.0592 28.7344 30.6486 28.4597 31.2489 28.2071C32.0288 27.8793 32.6757 28.2426 32.8396 29.0778C32.8529 29.1443 32.8241 29.2307 32.9172 29.2639L32.9128 29.2617Z" fill="#ED7223"/>
<path d="M21.8643 -8.86386e-07C21.933 0.179451 22.108 0.259207 22.2299 0.389919C22.673 0.870672 22.673 1.59291 22.1501 1.98061C21.0535 2.7959 20.1651 3.79064 19.4362 4.93824C19.414 4.97812 19.3941 5.018 19.3719 5.05788L19.3631 5.08446C19.1969 5.10883 19.0751 5.20853 18.9488 5.30822C18.0161 6.05262 17.2097 6.9255 16.4365 7.83162C15.4594 8.9748 14.6287 10.2199 13.9862 11.578C13.0158 13.6295 12.3534 15.7652 12.4398 18.0692C12.4863 19.3232 12.6813 20.5594 13.0668 21.758C13.3437 22.622 13.6317 23.4838 13.7934 24.3811C14.015 25.6084 13.9264 26.787 13.1842 27.8327C11.9812 29.5276 9.93854 30.2299 7.99559 29.3237C7.55028 29.1155 7.11827 28.8829 6.71949 28.5926C6.61093 28.5129 6.48686 28.4486 6.47357 28.2913C8.15953 28.4907 9.2296 27.5713 10.0537 26.2642C10.3794 25.748 10.3329 25.1565 10.1712 24.5849C9.81226 23.3354 9.33151 22.1279 8.87069 20.9139C7.40406 17.0656 7.7541 13.3392 9.58628 9.71033C11.4716 5.97951 14.272 3.1548 17.9851 1.23844C18.8247 0.804209 19.7153 0.49183 20.5927 0.155081C20.7012 0.112987 20.8364 0.119634 20.9028 -0.00221634H21.8599L21.8643 -8.86386e-07Z" fill="#E95717"/>
<path d="M11.979 47.4063C10.4437 47.105 9.03686 46.4868 7.72531 45.6472C4.70122 43.7131 2.80922 40.9128 1.60845 37.5918C0.228221 33.7701 -0.139544 29.8089 0.0443384 25.7768C0.0687084 25.2495 0.0930784 24.72 0.197205 24.2016C0.307977 23.65 0.658019 23.3176 1.17422 23.2423C1.62396 23.1759 2.03382 23.4085 2.29967 23.8981C2.91113 25.0258 3.67103 26.0449 4.49961 27.0197C4.49297 29.1509 4.42429 31.28 4.68571 33.409C5.0424 36.3356 5.79787 39.136 7.15816 41.7546C8.2681 43.8859 9.78568 45.6782 11.7574 47.0695C11.8616 47.1426 12.1097 47.1626 11.979 47.4063Z" fill="#E95717"/>
<path d="M3.60456 18.3617C3.40739 18.6452 3.16147 18.8823 2.89119 19.0972C2.64749 19.2922 2.40379 19.3055 2.16009 19.0972C-0.361097 16.9659 0.130734 13.7912 2.08033 12.2647C2.49684 11.9369 2.6342 11.9435 3.03519 12.2958C3.28111 12.5129 3.56469 12.6968 3.68432 13.0269C2.50791 14.5289 2.50348 16.113 3.33649 17.7635C3.43397 17.9562 3.59792 18.1246 3.60456 18.3595V18.3617Z" fill="#E95717"/>
<path d="M3.60454 18.3617C3.5979 18.1268 3.43395 17.9585 3.33647 17.7657C2.50346 16.1152 2.50789 14.5289 3.6843 13.0291C4.84077 14.2498 4.92274 16.5649 3.85932 18.0537C3.78178 18.1623 3.69095 18.2598 3.60454 18.3617Z" fill="#ED7223"/>
</g>
<path d="M54.5236 16.2C56.8596 16.2 58.6516 16.648 59.8996 17.544C61.1636 18.424 61.7956 19.744 61.7956 21.504C61.7956 22.464 61.6196 23.288 61.2676 23.976C60.9316 24.648 60.4356 25.2 59.7796 25.632C59.1396 26.048 58.3556 26.352 57.4276 26.544C56.4996 26.736 55.4516 26.832 54.2836 26.832H52.4356V33H50.1076V16.608C50.7636 16.448 51.4916 16.344 52.2916 16.296C53.1076 16.232 53.8516 16.2 54.5236 16.2ZM54.7156 18.24C53.7236 18.24 52.9636 18.264 52.4356 18.312V24.84H54.1876C54.9876 24.84 55.7076 24.792 56.3476 24.696C56.9876 24.584 57.5236 24.408 57.9556 24.168C58.4036 23.912 58.7476 23.568 58.9876 23.136C59.2276 22.704 59.3476 22.152 59.3476 21.48C59.3476 20.84 59.2196 20.312 58.9636 19.896C58.7236 19.48 58.3876 19.152 57.9556 18.912C57.5396 18.656 57.0516 18.48 56.4916 18.384C55.9316 18.288 55.3396 18.24 54.7156 18.24ZM73.3251 26.04C73.5811 26.36 73.9011 26.784 74.2851 27.312C74.6851 27.824 75.0931 28.4 75.5091 29.04C75.9251 29.664 76.3331 30.32 76.7331 31.008C77.1491 31.696 77.5011 32.36 77.7891 33H75.2451C74.9251 32.392 74.5731 31.776 74.1891 31.152C73.8211 30.528 73.4451 29.936 73.0611 29.376C72.6771 28.8 72.2931 28.264 71.9091 27.768C71.5411 27.272 71.2051 26.84 70.9011 26.472C70.6931 26.488 70.4771 26.496 70.2531 26.496C70.0451 26.496 69.8291 26.496 69.6051 26.496H67.5171V33H65.1891V16.608C65.8451 16.448 66.5731 16.344 67.3731 16.296C68.1891 16.232 68.9331 16.2 69.6051 16.2C71.9411 16.2 73.7171 16.64 74.9331 17.52C76.1651 18.4 76.7811 19.712 76.7811 21.456C76.7811 22.56 76.4851 23.504 75.8931 24.288C75.3171 25.072 74.4611 25.656 73.3251 26.04ZM69.7971 18.24C68.8051 18.24 68.0451 18.264 67.5171 18.312V24.576H69.1731C69.9731 24.576 70.6931 24.536 71.3331 24.456C71.9731 24.376 72.5091 24.224 72.9411 24C73.3891 23.776 73.7331 23.464 73.9731 23.064C74.2131 22.648 74.3331 22.104 74.3331 21.432C74.3331 20.808 74.2131 20.288 73.9731 19.872C73.7331 19.456 73.4051 19.128 72.9891 18.888C72.5891 18.648 72.1091 18.48 71.5491 18.384C71.0051 18.288 70.4211 18.24 69.7971 18.24ZM79.8331 24.672C79.8331 23.248 80.0411 21.992 80.4571 20.904C80.8891 19.816 81.4651 18.912 82.1851 18.192C82.9211 17.456 83.7691 16.904 84.7291 16.536C85.7051 16.168 86.7371 15.984 87.8251 15.984C88.8971 15.984 89.9051 16.168 90.8491 16.536C91.8091 16.904 92.6491 17.456 93.3691 18.192C94.0891 18.912 94.6571 19.816 95.0731 20.904C95.5051 21.992 95.7211 23.248 95.7211 24.672C95.7211 26.096 95.5051 27.352 95.0731 28.44C94.6571 29.528 94.0891 30.44 93.3691 31.176C92.6491 31.896 91.8091 32.44 90.8491 32.808C89.9051 33.176 88.8971 33.36 87.8251 33.36C86.7371 33.36 85.7051 33.176 84.7291 32.808C83.7691 32.44 82.9211 31.896 82.1851 31.176C81.4651 30.44 80.8891 29.528 80.4571 28.44C80.0411 27.352 79.8331 26.096 79.8331 24.672ZM82.2811 24.672C82.2811 25.68 82.4091 26.6 82.6651 27.432C82.9211 28.248 83.2811 28.944 83.7451 29.52C84.2251 30.096 84.8011 30.544 85.4731 30.864C86.1611 31.168 86.9291 31.32 87.7771 31.32C88.6251 31.32 89.3851 31.168 90.0571 30.864C90.7291 30.544 91.2971 30.096 91.7611 29.52C92.2411 28.944 92.6091 28.248 92.8651 27.432C93.1211 26.6 93.2491 25.68 93.2491 24.672C93.2491 23.664 93.1211 22.752 92.8651 21.936C92.6091 21.104 92.2411 20.4 91.7611 19.824C91.2971 19.248 90.7291 18.808 90.0571 18.504C89.3851 18.184 88.6251 18.024 87.7771 18.024C86.9291 18.024 86.1611 18.184 85.4731 18.504C84.8011 18.808 84.2251 19.248 83.7451 19.824C83.2811 20.4 82.9211 21.104 82.6651 21.936C82.4091 22.752 82.2811 23.664 82.2811 24.672ZM107.129 30.696C106.969 30.312 106.753 29.824 106.481 29.232C106.225 28.64 105.945 28 105.641 27.312C105.337 26.624 105.009 25.92 104.657 25.2C104.321 24.464 104.001 23.776 103.697 23.136C103.393 22.48 103.105 21.896 102.833 21.384C102.577 20.872 102.369 20.48 102.209 20.208C102.033 22.096 101.889 24.144 101.777 26.352C101.665 28.544 101.569 30.76 101.489 33H99.2088C99.2728 31.56 99.3448 30.112 99.4248 28.656C99.5048 27.184 99.5928 25.744 99.6888 24.336C99.8008 22.912 99.9128 21.528 100.025 20.184C100.153 18.84 100.289 17.568 100.433 16.368H102.473C102.905 17.072 103.369 17.904 103.865 18.864C104.361 19.824 104.857 20.832 105.353 21.888C105.849 22.928 106.329 23.976 106.793 25.032C107.257 26.072 107.681 27.024 108.065 27.888C108.449 27.024 108.873 26.072 109.337 25.032C109.801 23.976 110.281 22.928 110.777 21.888C111.273 20.832 111.769 19.824 112.265 18.864C112.761 17.904 113.225 17.072 113.657 16.368H115.697C116.241 21.728 116.649 27.272 116.921 33H114.641C114.561 30.76 114.465 28.544 114.353 26.352C114.241 24.144 114.097 22.096 113.921 20.208C113.761 20.48 113.545 20.872 113.273 21.384C113.017 21.896 112.737 22.48 112.433 23.136C112.129 23.776 111.801 24.464 111.449 25.2C111.113 25.92 110.793 26.624 110.489 27.312C110.185 28 109.897 28.64 109.625 29.232C109.369 29.824 109.161 30.312 109.001 30.696H107.129ZM120.379 24.672C120.379 23.248 120.587 21.992 121.003 20.904C121.435 19.816 122.011 18.912 122.731 18.192C123.467 17.456 124.315 16.904 125.275 16.536C126.251 16.168 127.283 15.984 128.371 15.984C129.443 15.984 130.451 16.168 131.395 16.536C132.355 16.904 133.195 17.456 133.915 18.192C134.635 18.912 135.203 19.816 135.619 20.904C136.051 21.992 136.267 23.248 136.267 24.672C136.267 26.096 136.051 27.352 135.619 28.44C135.203 29.528 134.635 30.44 133.915 31.176C133.195 31.896 132.355 32.44 131.395 32.808C130.451 33.176 129.443 33.36 128.371 33.36C127.283 33.36 126.251 33.176 125.275 32.808C124.315 32.44 123.467 31.896 122.731 31.176C122.011 30.44 121.435 29.528 121.003 28.44C120.587 27.352 120.379 26.096 120.379 24.672ZM122.827 24.672C122.827 25.68 122.955 26.6 123.211 27.432C123.467 28.248 123.827 28.944 124.291 29.52C124.771 30.096 125.347 30.544 126.019 30.864C126.707 31.168 127.475 31.32 128.323 31.32C129.171 31.32 129.931 31.168 130.603 30.864C131.275 30.544 131.843 30.096 132.307 29.52C132.787 28.944 133.155 28.248 133.411 27.432C133.667 26.6 133.795 25.68 133.795 24.672C133.795 23.664 133.667 22.752 133.411 21.936C133.155 21.104 132.787 20.4 132.307 19.824C131.843 19.248 131.275 18.808 130.603 18.504C129.931 18.184 129.171 18.024 128.323 18.024C127.475 18.024 126.707 18.184 126.019 18.504C125.347 18.808 124.771 19.248 124.291 19.824C123.827 20.4 123.467 21.104 123.211 21.936C122.955 22.752 122.827 23.664 122.827 24.672ZM149.619 33C149.155 32.072 148.643 31.136 148.083 30.192C147.539 29.232 146.907 28.256 146.187 27.264C145.963 27.552 145.675 27.952 145.323 28.464C144.987 28.976 144.643 29.52 144.291 30.096C143.955 30.672 143.635 31.224 143.331 31.752C143.027 32.28 142.803 32.696 142.659 33H138.387C139.091 31.704 139.907 30.344 140.835 28.92C141.779 27.496 142.827 25.984 143.979 24.384L138.627 16.368H143.163L146.403 21.552L149.571 16.368H153.843L148.563 24.432C149.907 26.176 151.035 27.792 151.947 29.28C152.859 30.752 153.579 31.992 154.107 33H149.619ZM168.745 33C168.569 32.424 168.369 31.832 168.145 31.224C167.937 30.616 167.729 30.008 167.521 29.4H161.041C160.833 30.008 160.617 30.616 160.393 31.224C160.185 31.832 159.993 32.424 159.817 33H155.929C156.553 31.208 157.145 29.552 157.705 28.032C158.265 26.512 158.809 25.08 159.337 23.736C159.881 22.392 160.409 21.12 160.921 19.92C161.449 18.704 161.993 17.52 162.553 16.368H166.129C166.673 17.52 167.209 18.704 167.737 19.92C168.265 21.12 168.793 22.392 169.321 23.736C169.865 25.08 170.417 26.512 170.977 28.032C171.537 29.552 172.129 31.208 172.753 33H168.745ZM164.257 20.136C164.177 20.376 164.057 20.704 163.897 21.12C163.737 21.536 163.553 22.016 163.345 22.56C163.137 23.104 162.905 23.704 162.649 24.36C162.409 25.016 162.161 25.704 161.905 26.424H166.633C166.377 25.704 166.129 25.016 165.889 24.36C165.649 23.704 165.417 23.104 165.193 22.56C164.985 22.016 164.801 21.536 164.641 21.12C164.481 20.704 164.353 20.376 164.257 20.136ZM179.802 16.368C180.09 16.896 180.418 17.552 180.786 18.336C181.17 19.104 181.562 19.944 181.962 20.856C182.378 21.752 182.786 22.672 183.186 23.616C183.586 24.56 183.962 25.448 184.314 26.28C184.666 25.448 185.042 24.56 185.442 23.616C185.842 22.672 186.242 21.752 186.642 20.856C187.058 19.944 187.45 19.104 187.818 18.336C188.202 17.552 188.538 16.896 188.826 16.368H192.234C192.394 17.472 192.538 18.712 192.666 20.088C192.81 21.448 192.93 22.872 193.026 24.36C193.138 25.832 193.234 27.312 193.314 28.8C193.41 30.288 193.49 31.688 193.554 33H189.906C189.858 31.384 189.794 29.624 189.714 27.72C189.634 25.816 189.514 23.896 189.354 21.96C189.066 22.632 188.746 23.376 188.394 24.192C188.042 25.008 187.69 25.824 187.338 26.64C187.002 27.456 186.674 28.24 186.354 28.992C186.034 29.728 185.762 30.36 185.538 30.888H182.922C182.698 30.36 182.426 29.728 182.106 28.992C181.786 28.24 181.45 27.456 181.098 26.64C180.762 25.824 180.418 25.008 180.066 24.192C179.714 23.376 179.394 22.632 179.106 21.96C178.946 23.896 178.826 25.816 178.746 27.72C178.666 29.624 178.602 31.384 178.554 33H174.906C174.97 31.688 175.042 30.288 175.122 28.8C175.218 27.312 175.314 25.832 175.41 24.36C175.522 22.872 175.642 21.448 175.77 20.088C175.914 18.712 176.066 17.472 176.226 16.368H179.802ZM208.541 33C208.365 32.424 208.165 31.832 207.941 31.224C207.733 30.616 207.525 30.008 207.317 29.4H200.837C200.629 30.008 200.413 30.616 200.189 31.224C199.981 31.832 199.789 32.424 199.613 33H195.725C196.349 31.208 196.941 29.552 197.501 28.032C198.061 26.512 198.605 25.08 199.133 23.736C199.677 22.392 200.205 21.12 200.717 19.92C201.245 18.704 201.789 17.52 202.349 16.368H205.925C206.469 17.52 207.005 18.704 207.533 19.92C208.061 21.12 208.589 22.392 209.117 23.736C209.661 25.08 210.213 26.512 210.773 28.032C211.333 29.552 211.925 31.208 212.549 33H208.541ZM204.053 20.136C203.973 20.376 203.853 20.704 203.693 21.12C203.533 21.536 203.349 22.016 203.141 22.56C202.933 23.104 202.701 23.704 202.445 24.36C202.205 25.016 201.957 25.704 201.701 26.424H206.429C206.173 25.704 205.925 25.016 205.685 24.36C205.445 23.704 205.213 23.104 204.989 22.56C204.781 22.016 204.597 21.536 204.437 21.12C204.277 20.704 204.149 20.376 204.053 20.136Z" fill="black"/>
<defs>
<clipPath id="clip0_185_452">
<rect width="32.9128" height="48" fill="white"/>
</clipPath>
</defs>
</svg>
