<svg width="400" height="584" viewBox="0 0 400 584" fill="none" xmlns="http://www.w3.org/2000/svg">
<g clip-path="url(#clip0_252_6)">
<path d="M400 356.017V381.139C398.196 384.212 398.627 387.689 398.331 390.977C395.154 425.614 387.157 458.903 370.705 489.82C348.681 531.196 316.101 560.091 271.082 574.188C235.057 585.482 198.384 586.156 161.389 580.55C156.058 579.741 150.377 579.984 145.584 576.776C147.173 573.811 144.157 573.568 142.892 572.679C118.928 555.724 100.485 533.945 86.9952 508.015C70.4362 476.154 61.2816 442.083 56.9467 406.476C53.7964 380.573 54.6042 354.669 54.685 328.739C61.9548 335.073 69.5746 340.815 78.7022 344.238C78.8638 346.152 80.3716 346.933 81.6909 347.904C86.5374 351.435 91.7878 354.265 97.1998 356.799C120.813 367.823 145.611 359.252 160.258 338.658C169.278 325.936 170.355 311.569 167.663 296.663C165.697 285.746 162.197 275.261 158.831 264.749C154.146 250.166 151.777 235.125 151.212 219.869C150.162 191.836 158.212 165.852 170.005 140.892C177.814 124.369 187.911 109.22 199.785 95.3115C209.181 84.314 218.955 73.6938 230.318 64.6101C231.852 63.3702 233.333 62.1842 235.353 61.8877C234.707 63.5319 234.141 65.2301 233.414 66.8474C221.729 92.9395 216.909 120.056 221.917 148.493C223.775 158.925 227.464 168.817 235.46 176.176C248.304 188.009 273.721 183.372 283.818 167.658C288.934 159.733 290.603 150.838 290.765 141.62C290.872 134.908 290.415 128.169 290.684 121.458C290.926 115.501 294.561 111.188 299.973 109.571C305.574 107.899 310.312 109.409 314.028 113.856C316.505 116.821 318.848 119.948 321.109 123.102C348.169 160.677 353.85 200.596 334.707 243.508C327.652 259.304 319.898 274.776 313.651 290.922C307.674 306.394 303.581 322.162 306.031 339.009C307.674 350.464 313.113 356.044 324.529 357.23C336.053 358.416 347.038 355.748 357.835 352.109C365.32 349.602 372.483 346.26 379.779 343.187C389.257 339.197 397.119 343.618 399.111 353.78C399.273 354.589 398.923 355.64 400.054 356.044L400 356.017Z" fill="#ED7223"/>
<path d="M265.724 9.92045e-05C266.559 2.18343 268.686 3.1538 270.167 4.74412C275.552 10.5933 275.552 19.3805 269.198 24.0976C255.87 34.0169 245.073 46.1196 236.214 60.0821C235.945 60.5673 235.703 61.0524 235.434 61.5376L235.326 61.8611C233.306 62.1576 231.826 63.3705 230.291 64.5835C218.955 73.6403 209.155 84.2604 199.758 95.2849C187.884 109.193 177.787 124.342 169.978 140.865C158.185 165.825 150.135 191.81 151.185 219.842C151.75 235.099 154.12 250.139 158.805 264.722C162.17 275.234 165.67 285.72 167.636 296.636C170.328 311.569 169.251 325.909 160.232 338.632C145.611 359.252 120.786 367.797 97.1729 356.772C91.7609 354.238 86.5105 351.408 81.664 347.877C80.3447 346.907 78.8368 346.125 78.6753 344.211C99.1653 346.637 112.17 335.451 122.186 319.548C126.144 313.267 125.579 306.07 123.613 299.116C119.251 283.914 113.409 269.223 107.808 254.452C89.9839 207.632 94.238 162.294 116.505 118.142C139.418 72.7508 173.452 38.3836 218.578 15.0678C228.783 9.78465 239.607 5.98404 250.269 1.88693C251.589 1.37479 253.231 1.45565 254.039 -0.0268555H265.67L265.724 9.92045e-05Z" fill="#E95717"/>
<path d="M145.584 576.776C126.925 573.11 109.828 565.59 93.888 555.374C57.1352 531.843 34.1411 497.772 19.5477 457.367C2.77329 410.87 -1.69629 362.675 0.538501 313.618C0.834677 307.202 1.13085 300.76 2.39634 294.453C3.74259 287.741 7.99677 283.698 14.2703 282.781C19.7361 281.973 24.7173 284.803 27.9483 290.76C35.3796 304.48 44.615 316.879 54.685 328.739C54.6042 354.67 53.7695 380.573 56.9467 406.476C61.2816 442.084 70.4631 476.154 86.9952 508.015C100.485 533.945 118.928 555.751 142.892 572.679C144.157 573.569 147.173 573.811 145.584 576.776Z" fill="#E95717"/>
<path d="M43.8072 223.4C41.4109 226.851 38.4222 229.735 35.1373 232.349C32.1756 234.721 29.2138 234.883 26.252 232.349C-4.3888 206.419 1.58859 167.793 25.2827 149.221C30.3446 145.232 32.014 145.313 36.8875 149.598C39.8761 152.24 43.3226 154.477 44.7765 158.493C30.4793 176.769 30.4254 196.041 40.5493 216.123C41.734 218.468 43.7264 220.516 43.8072 223.373V223.4Z" fill="#E95717"/>
<path d="M43.8072 223.4C43.7264 220.543 41.734 218.495 40.5493 216.15C30.4254 196.068 30.4793 176.769 44.7765 158.521C58.8314 173.373 59.8277 201.54 46.9036 219.654C45.9612 220.974 44.8573 222.16 43.8072 223.4Z" fill="#ED7223"/>
</g>
<defs>
<clipPath id="clip0_252_6">
<rect width="400" height="584" fill="white"/>
</clipPath>
</defs>
</svg>
