<svg width="460" height="462" viewBox="0 0 460 462" fill="none" xmlns="http://www.w3.org/2000/svg">
<path d="M74.5101 399.948H35.6237V412.311H74.5101V399.948Z" fill="#EBEBEB"/>
<path d="M52.8217 427.902C46.3406 428.012 30.0053 428.288 23.7454 428.366H13.9354H13.4377V427.857V415.494V415.008H13.9907L33.4338 415.085C38.267 415.085 48.0328 415.24 52.877 415.306H53.1424V415.56L52.888 427.924L52.8217 427.902ZM52.8217 427.902L52.5562 415.538L52.8217 415.803C47.9664 415.869 38.2227 415.98 33.3785 416.024L13.9354 416.112L14.4884 415.56V427.924L13.9796 427.427H23.6127C29.773 427.504 46.4844 427.78 52.8659 427.88L52.8217 427.902Z" fill="#EBEBEB"/>
<path d="M199.63 81.5515C193.149 81.662 176.813 81.9382 170.554 82.0045H160.743H160.301V81.4962V69.1325V68.5801H160.854L180.297 68.6574C185.141 68.6574 194.896 68.8011 199.74 68.8674H200.006V69.1767L199.74 81.5404L199.63 81.5515ZM199.63 81.5515L199.364 69.1767L199.63 69.4419C194.775 69.5082 185.031 69.6076 180.187 69.6518L160.743 69.7292L161.296 69.1767V81.5404L160.788 81.0432H170.421C176.581 81.1095 193.293 81.3858 199.674 81.4962L199.63 81.5515Z" fill="#EBEBEB"/>
<path d="M177.997 97.1417C171.516 97.2522 155.18 97.5285 148.921 97.5948L139.11 97.65H138.613V97.1417V84.778V84.2256H139.166L158.609 84.3029C163.442 84.3029 173.208 84.4466 178.052 84.5129H178.318V84.767L177.997 97.1417ZM177.997 97.1417L177.731 84.778L177.997 85.0432L168.275 85.1647C162.104 85.2531 145.492 85.3084 139.11 85.3305L139.663 84.778V97.1417L139.166 96.6445H148.799C154.959 96.7108 171.671 96.9871 178.052 97.0976L177.997 97.1417Z" fill="#EBEBEB"/>
<path d="M156.33 69.188H117.444V81.5517H156.33V69.188Z" fill="#EBEBEB"/>
<path d="M446.02 415.538H407.134V427.901H446.02V415.538Z" fill="#EBEBEB"/>
<path d="M424.332 0.596191H385.446V12.9599H424.332V0.596191Z" fill="#EBEBEB"/>
<path d="M446.02 28.5502C439.539 28.6607 423.204 28.9369 416.944 29.0143H407.134H406.636V28.506L406.581 16.1423V15.5898H407.134L426.577 15.6672C431.421 15.6672 441.176 15.8108 446.02 15.8882H446.286V16.1423L446.02 28.506V28.5502ZM446.02 28.5502L445.755 16.1423L446.02 16.4075C441.165 16.4738 431.433 16.5842 426.577 16.6174L407.134 16.6947L407.687 16.1423V28.506L407.178 28.0088H416.811C422.983 28.0751 439.694 28.3624 446.065 28.4618L446.02 28.5502Z" fill="#EBEBEB"/>
<path d="M74.5099 12.9601C68.0289 13.0706 51.6935 13.3468 45.4337 13.4242H35.6236H35.1259V12.9159V0.552201V-0.000244141H35.6789L55.1221 0.0770978C59.9663 0.0770978 69.721 0.220734 74.5652 0.298077H74.8307V0.552201L74.5652 12.9159L74.5099 12.9601ZM74.5099 12.9601L74.2445 0.596397L74.5099 0.861569C69.6547 0.927862 59.911 1.03835 55.0668 1.0715L35.6236 1.14884L36.1766 0.596397V12.9601L35.6679 12.4629H45.301C51.4613 12.5292 68.1727 12.8165 74.5542 12.9159L74.5099 12.9601Z" fill="#EBEBEB"/>
<path d="M212.271 23.4125L204.054 24.9373L202.218 33.5886L200.382 24.9373L192.164 23.4125L200.349 21.4127L202.218 13.2476L204.087 21.4127L212.271 23.4125Z" fill="#ED7223"/>
<path d="M98.2001 65.2436L93.6102 66.0943L92.5817 70.9338L91.5531 66.0943L86.9633 65.2436L91.5421 64.1276L92.5817 59.5645L93.6324 64.1276L98.2001 65.2436Z" fill="#ED7223"/>
<path d="M320.447 67.0449L315.857 67.8956L314.829 72.735L313.811 67.8956L309.21 67.0449L313.789 65.9289L314.829 61.3657L315.879 65.9289L320.447 67.0449Z" fill="#ED7223"/>
<path d="M386.452 113.925L381.862 114.765L380.834 119.604L379.816 114.765L375.215 113.914L379.794 112.798L380.834 108.235L381.884 112.798L386.452 113.925Z" fill="#ED7223"/>
<path d="M291.725 153.779L287.135 154.629L286.106 159.458L285.078 154.629L280.488 153.779L285.056 152.663L286.106 148.088L287.146 152.663L291.725 153.779Z" fill="#ED7223"/>
<path d="M140.283 142.155L135.693 143.006L134.664 147.845L133.647 143.006L129.057 142.155L133.625 141.039L134.664 136.476L135.715 141.039L140.283 142.155Z" fill="#ED7223"/>
<path d="M61.227 183.522L56.6372 184.373L55.6086 189.201L54.5911 184.373L49.9903 183.522L54.569 182.406L55.6086 177.832L56.6593 182.406L61.227 183.522Z" fill="#ED7223"/>
<path d="M272.68 126.742C272.328 126.742 271.99 126.882 271.741 127.13C271.492 127.379 271.353 127.716 271.353 128.068C271.353 128.419 271.492 128.757 271.741 129.005C271.99 129.254 272.328 129.394 272.68 129.394C273.032 129.394 273.369 129.254 273.618 129.005C273.867 128.757 274.007 128.419 274.007 128.068C274.007 127.716 273.867 127.379 273.618 127.13C273.369 126.882 273.032 126.742 272.68 126.742Z" fill="#ED7223"/>
<path d="M149.241 108.301C148.909 108.332 148.6 108.485 148.374 108.731C148.149 108.978 148.025 109.299 148.025 109.633C148.025 109.966 148.149 110.288 148.374 110.534C148.6 110.78 148.909 110.934 149.241 110.964C149.574 110.934 149.883 110.78 150.108 110.534C150.333 110.288 150.458 109.966 150.458 109.633C150.458 109.299 150.333 108.978 150.108 108.731C149.883 108.485 149.574 108.332 149.241 108.301Z" fill="#ED7223"/>
<path d="M39.1296 192.781C38.7971 192.812 38.4879 192.965 38.2628 193.211C38.0377 193.458 37.9129 193.779 37.9129 194.113C37.9129 194.446 38.0377 194.768 38.2628 195.014C38.4879 195.26 38.7971 195.414 39.1296 195.444C39.4621 195.414 39.7712 195.26 39.9964 195.014C40.2215 194.768 40.3463 194.446 40.3463 194.113C40.3463 193.779 40.2215 193.458 39.9964 193.211C39.7712 192.965 39.4621 192.812 39.1296 192.781Z" fill="#ED7223"/>
<path d="M127.343 117.792C127.093 117.792 126.854 117.891 126.678 118.067C126.502 118.243 126.403 118.482 126.403 118.731C126.403 118.98 126.502 119.219 126.678 119.395C126.854 119.572 127.093 119.671 127.343 119.671C127.592 119.671 127.831 119.572 128.007 119.395C128.184 119.219 128.283 118.98 128.283 118.731C128.283 118.482 128.184 118.243 128.007 118.067C127.831 117.891 127.592 117.792 127.343 117.792Z" fill="#ED7223"/>
<path d="M74.698 127.129C74.4486 127.129 74.2095 127.228 74.0332 127.404C73.8569 127.58 73.7579 127.819 73.7579 128.068C73.7579 128.317 73.8569 128.556 74.0332 128.732C74.2095 128.908 74.4486 129.007 74.698 129.007C74.9473 129.007 75.1864 128.908 75.3627 128.732C75.539 128.556 75.6381 128.317 75.6381 128.068C75.6381 127.819 75.539 127.58 75.3627 127.404C75.1864 127.228 74.9473 127.129 74.698 127.129Z" fill="#ED7223"/>
<path d="M187.021 33.5886C186.772 33.5886 186.533 33.6876 186.357 33.8637C186.18 34.0398 186.081 34.2787 186.081 34.5278C186.081 34.7769 186.18 35.0157 186.357 35.1919C186.533 35.368 186.772 35.4669 187.021 35.4669C187.271 35.4669 187.51 35.368 187.686 35.1919C187.862 35.0157 187.961 34.7769 187.961 34.5278C187.961 34.2787 187.862 34.0398 187.686 33.8637C187.51 33.6876 187.271 33.5886 187.021 33.5886Z" fill="#ED7223"/>
<path d="M331.219 83.8389C330.97 83.8389 330.731 83.9378 330.555 84.1139C330.378 84.2901 330.279 84.529 330.279 84.778C330.279 85.0271 330.378 85.266 330.555 85.4421C330.731 85.6182 330.97 85.7172 331.219 85.7172C331.469 85.7172 331.708 85.6182 331.884 85.4421C332.06 85.266 332.159 85.0271 332.159 84.778C332.159 84.529 332.06 84.2901 331.884 84.1139C331.708 83.9378 331.469 83.8389 331.219 83.8389Z" fill="#ED7223"/>
<path d="M419.654 170.496C416.336 170.496 416.336 175.6 419.654 175.6C422.972 175.6 422.939 170.496 419.654 170.496Z" fill="#ED7223"/>
<path d="M254.652 37.0691C251.334 37.0691 251.334 42.1626 254.652 42.1626C257.97 42.1626 257.937 37.0691 254.652 37.0691Z" fill="#ED7223"/>
<path d="M83.4131 207.874L181.547 238.734L153.743 373.309L38.5877 340.56L83.4131 207.874Z" fill="#ED7223"/>
<path opacity="0.6" d="M83.4131 207.874L181.547 238.734L153.743 373.309L38.5877 340.56L83.4131 207.874Z" fill="white"/>
<path d="M38.5877 340.56L5.5741 324.153L70.2962 201.786L75.45 207.465L83.4131 207.874L38.5877 340.56Z" fill="#ED7223"/>
<path opacity="0.4" d="M38.5877 340.56L5.5741 324.153L70.2962 201.786L75.45 207.465L83.4131 207.874L38.5877 340.56Z" fill="white"/>
<path opacity="0.5" d="M26.2007 318.65L5.5741 324.153L70.2962 201.786L75.45 207.465L26.2007 318.65Z" fill="#ED7223"/>
<path d="M38.8199 337.455C37.0282 334.251 35.0706 331.158 33.102 328.075C31.1333 324.992 29.0762 321.965 26.9749 318.971L26.6873 318.551L26.2007 318.65C23.1813 319.236 20.162 319.821 17.1648 320.54C14.1676 321.258 11.1704 321.932 8.20634 322.749C11.281 322.473 14.3335 322.064 17.3749 321.644C20.4164 321.225 23.4578 320.694 26.4882 320.153L25.714 319.832C27.7859 322.86 29.902 325.843 32.0624 328.782C34.219 331.71 36.431 334.638 38.8199 337.455Z" fill="#ED7223"/>
<path d="M26.1785 319.7C30.6024 310.474 34.8494 301.182 39.0742 291.868C43.2991 282.553 47.3912 273.206 51.5608 263.87C55.7303 254.533 59.7118 245.087 63.7266 235.717L69.6657 221.575C71.5901 216.846 73.5698 212.128 75.4389 207.377C73.2269 211.973 71.0924 216.625 68.9136 221.254L62.5432 235.198C58.3183 244.501 54.2151 253.859 50.0566 263.196C45.8981 272.532 41.9055 281.979 37.8908 291.359C33.8761 300.74 29.9609 310.198 26.1785 319.7Z" fill="#ED7223"/>
<path d="M82.5062 215.674L185.241 222.315L191.799 387.208L72.121 383.474L82.5062 215.674Z" fill="#9D431C"/>
<path d="M72.121 383.474L36.0438 374.226L68.2943 212.514L74.6868 217.586L82.5061 215.674L72.121 383.474Z" fill="#5F270F"/>
<path opacity="0.1" d="M54.6575 361.663L36.0438 374.226L68.2943 212.514L74.6868 217.586L54.6575 361.663Z" fill="black"/>
<path d="M71.568 379.772C69.0353 376.59 66.3589 373.574 63.6934 370.569C61.028 367.563 58.2631 364.669 55.4871 361.807L55.1 361.409L54.6576 361.663C51.8816 363.243 49.1277 364.834 46.3848 366.558C43.642 368.282 40.9213 369.961 38.2559 371.839C41.1646 370.591 44.018 369.21 46.8604 367.773C49.7028 366.337 52.512 364.845 55.3101 363.354L54.4806 363.21C57.2382 366.12 60.0326 368.959 62.864 371.729C65.7174 374.458 68.5708 377.209 71.568 379.772Z" fill="#1D0A01"/>
<path d="M54.8897 362.89C56.8805 350.835 58.6833 338.759 60.4196 326.66C62.156 314.562 63.8261 302.452 65.5403 290.354C67.2546 278.255 68.7698 266.101 70.285 253.959L72.497 235.739C73.1827 229.651 73.9237 223.585 74.5652 217.486C73.5477 223.508 72.6518 229.552 71.6896 235.584L69.0574 253.694C67.2767 265.781 65.6399 277.902 63.9367 290C62.2335 302.099 60.7625 314.275 59.192 326.417C57.6215 338.56 56.1948 350.703 54.8897 362.89Z" fill="#1D0A01"/>
<path d="M183.073 76.6242C192.253 67.7851 216.651 57.2444 239.998 78.834C273.177 109.439 261.355 193.267 256.743 206.04C256.743 206.04 199.74 226.425 148.688 197.676C148.688 197.676 175.862 140.918 171.106 111.97C170.024 105.549 170.551 98.9607 172.639 92.793C174.727 86.6253 178.312 81.0703 183.073 76.6242Z" fill="#1D0A01"/>
<path d="M166.207 143.503C166.03 143.967 165.875 144.431 165.698 144.895C163.412 150.788 160.587 156.458 157.26 161.833C154.211 167.063 150.418 171.823 146.001 175.964C145.879 176.075 145.68 175.909 145.802 175.799C150.347 171.523 153.455 166.076 156.308 160.651C159.106 155.339 161.58 149.863 163.719 144.254C168.132 132.867 171.072 120.963 172.467 108.831C172.467 108.599 172.909 108.621 172.898 108.831C172.843 110.533 172.743 112.223 172.611 113.914C172.645 113.9 172.682 113.895 172.718 113.9C172.754 113.905 172.789 113.92 172.818 113.942C172.847 113.964 172.87 113.994 172.884 114.028C172.898 114.062 172.903 114.098 172.898 114.135C171.881 125.471 170.542 136.586 167.191 147.491C163.795 158.203 158.935 168.394 152.747 177.776C149.32 183.113 145.564 188.232 141.499 193.101C141.494 193.112 141.486 193.122 141.477 193.129C141.467 193.136 141.456 193.141 141.445 193.143C141.433 193.146 141.421 193.145 141.409 193.142C141.397 193.139 141.387 193.133 141.378 193.125C141.369 193.117 141.362 193.107 141.358 193.096C141.353 193.085 141.352 193.073 141.353 193.061C141.354 193.049 141.357 193.037 141.364 193.027C141.37 193.017 141.379 193.008 141.389 193.002C152.769 178.185 160.688 161.17 166.207 143.503Z" fill="#1D0A01"/>
<path d="M229.58 74.094C258.944 91.5512 267.825 126.466 268.024 157.568C268.177 167.143 267.384 176.71 265.657 186.13C265.657 186.165 265.643 186.199 265.618 186.224C265.593 186.248 265.559 186.262 265.524 186.262C265.489 186.262 265.455 186.248 265.43 186.224C265.405 186.199 265.391 186.165 265.391 186.13C267.292 169.668 266.797 153.017 263.921 136.697C261.145 121.416 256.743 105.628 247.795 92.5014C243.034 85.2648 236.749 79.1527 229.381 74.5912C229.104 74.3702 229.303 73.9282 229.58 74.094Z" fill="#1D0A01"/>
<path d="M238.969 188.306C284.315 229.364 316.587 264.732 316.167 280.819C315.205 316.849 296.182 324.628 292.798 323.49C257.019 311.336 234.28 243.319 219.239 202.206C204.308 161.402 225.974 176.55 238.969 188.306Z" fill="#F2C7B5"/>
<path d="M262.936 307.071L321.686 263.273C321.686 263.273 265.082 204.88 235.652 183.124C210.933 164.839 198.513 177.744 213.996 213.929C228.651 248.169 262.936 307.071 262.936 307.071Z" fill="#ED7223"/>
<path d="M289.137 230.8L283.607 225.475C281.295 226.756 279.99 229.342 279.382 232.336C277.982 236.481 277.543 240.89 278.099 245.23C278.431 247.606 279.448 251.075 282.523 250.5C285.841 249.893 287.29 244.689 288.053 242.048C288.925 238.365 289.29 234.581 289.137 230.8ZM267.083 248.169C265.712 245.329 263.102 242.457 260.005 244.998C256.687 247.749 256.997 253.428 257.672 257.218C258.16 260.315 259.177 263.305 260.68 266.057C261.375 267.612 262.565 268.893 264.064 269.703C268.201 271.438 268.543 265.958 268.864 263.218C269.45 258.212 269.295 252.898 267.083 248.169ZM275.058 217.298L270.789 213.299C268.886 213.553 267.736 215.31 267.117 217.508C266.145 220.496 265.77 223.646 266.011 226.778C266.221 228.668 266.608 231.938 268.731 232.778C270.855 233.618 272.558 231.419 273.299 229.717C274.217 227.695 275.777 221.497 275.058 217.332V217.298ZM242.885 216.127C242.387 210.536 239.047 205.719 235.408 201.642C232.953 198.858 228.529 193.256 224.271 196.383C220.953 198.803 222.369 203.576 223.629 206.68C225.701 211.653 229.155 215.928 233.583 219C235.441 220.248 238.24 221.784 240.219 221.066C242.232 220.746 243.117 218.768 242.885 216.127ZM284.525 274.278C283.419 270.587 279.747 264.411 276.894 264.963C274.56 265.438 272.68 270.742 274.682 277.504C276.838 284.818 280.886 287.923 282.777 287.083C286.549 285.459 285.907 279.106 284.525 274.322V274.278Z" fill="#1D0A01"/>
<path d="M304.643 257.097C300.557 259.436 296.617 262.019 292.842 264.831C288.827 267.56 284.945 270.433 281.041 273.283C277.137 276.134 262.04 288.078 258.269 291.072C258.103 291.205 258.357 291.481 258.534 291.359C262.56 288.641 278.442 277.824 282.28 275.018C286.117 272.212 289.933 269.416 293.649 266.488C297.365 263.56 301.446 260.699 304.786 257.329C304.853 257.207 304.753 257.008 304.643 257.097Z" fill="#1D0A01"/>
<path opacity="0.1" d="M296.879 281.769L262.936 307.071C262.936 307.071 228.651 248.18 213.996 213.929C203.943 190.439 205.657 176.771 214.848 175.059C229.558 194.03 268.455 244.28 296.879 281.769Z" fill="black"/>
<path d="M220.223 177.003C228.556 182.929 234.908 191.227 238.45 200.814C244.289 216.746 275.113 291.945 280.377 308.352C285.642 324.76 326.707 404.633 326.707 404.633C326.707 404.633 304.156 428.874 297.575 433.846C288.429 440.785 255.305 451.822 255.305 451.822C255.305 451.822 241.436 332.572 238.826 320.462C236.216 308.352 220.223 177.003 220.223 177.003Z" fill="#ED7223"/>
<path d="M294.125 361.973C292.51 367.022 288.916 371.099 284.945 374.458C282.8 376.281 278.73 380.126 276.849 375.961C276.289 374.317 276.289 372.534 276.849 370.89C277.646 367.787 278.975 364.845 280.776 362.194C282.91 358.879 286.615 354.46 291.028 354.681C295.12 354.979 295.065 358.935 294.125 361.973Z" fill="#1D0A01"/>
<path d="M269.251 385.761C269.119 391.286 268.256 397.252 264.728 401.771C263.091 403.881 261.045 404.732 259.275 403.583C257.296 402.743 256.278 399.661 255.78 397.429C254.606 392.067 255.009 386.48 256.942 381.342C258.158 378.137 260.437 373.607 264.595 374.093C269.948 374.723 269.351 381.982 269.251 385.761Z" fill="#1D0A01"/>
<path d="M289.701 381.386C292.211 382.944 290.663 390.114 288.905 393.628C286.693 398.125 282.656 403.362 278.685 401.981C276.672 401.274 275.821 396.158 279.305 389.197C282.556 382.756 287.655 380.104 289.701 381.386Z" fill="#1D0A01"/>
<path d="M305.539 418.223C304.842 420.09 303.238 423.427 300.927 423.747C298.615 424.068 298.018 421.814 297.852 420.123C297.635 417.466 297.844 414.792 298.471 412.201C299.157 408.699 300.838 405.572 304.079 404.997C310.482 403.959 306.457 415.814 305.539 418.223Z" fill="#1D0A01"/>
<path d="M303.338 461.49H199.265C194.741 443.746 187.774 416.433 181.713 392.633C181.348 391.175 180.972 389.716 180.607 388.302C180.375 387.407 180.164 386.534 179.943 385.673C174.104 362.801 169.503 344.714 169.392 344.294L169.226 343.687C169.171 343.466 169.149 343.344 169.149 343.344H269.627L303.338 461.49Z" fill="#5F270F"/>
<path d="M266.365 343.256C266.365 343.322 266.365 343.444 266.365 343.598C266.365 344.781 266.365 345.963 266.365 347.145C266.365 350.15 266.188 353.156 265.989 356.161C265.195 367.914 263.658 379.605 261.388 391.164C258.448 406.408 254.555 421.453 249.731 436.21C249.299 437.492 249.045 438.21 249.023 438.287L241.004 442.243L240.352 442.574L224.448 450.485C222.236 451.59 220.61 452.397 220.157 452.64L220.035 452.706C220.035 452.706 219.858 456.275 219.637 461.49H111.096C113.308 443.105 113.562 440.674 113.562 440.674C112.921 437.127 110.078 427.99 111.096 417.361C113.308 394.015 127.686 347.134 128.969 344.339C129.267 343.654 129.455 343.3 129.455 343.3H156.906H221.937H266.365V343.256Z" fill="#5F270F"/>
<path d="M220.146 452.397V452.64C220.146 455.59 220.068 458.551 220.024 461.479H218.918C219.161 458.518 219.36 455.546 219.714 452.585C219.714 452.32 219.714 452.055 219.792 451.79C219.792 451.746 219.809 451.703 219.84 451.672C219.871 451.641 219.914 451.624 219.958 451.624C220.002 451.624 220.044 451.641 220.075 451.672C220.106 451.703 220.124 451.746 220.124 451.79C220.135 452.01 220.146 452.209 220.146 452.397Z" fill="#1D0A01"/>
<path d="M207.139 458.098C211.751 454.905 216.728 452.22 221.617 449.458C226.505 446.696 231.681 443.934 236.879 441.514C247.043 436.796 257.76 433.382 268.444 430.067C268.507 430.042 268.577 430.043 268.64 430.07C268.702 430.097 268.751 430.148 268.776 430.211C268.801 430.274 268.799 430.344 268.772 430.406C268.746 430.468 268.695 430.517 268.632 430.542C258.346 434.962 248.359 440.022 238.129 444.552C232.975 446.839 227.788 448.972 222.645 451.292C217.502 453.612 212.47 456.132 207.272 458.297C207.106 458.341 207.007 458.176 207.139 458.098Z" fill="#1D0A01"/>
<path d="M235.298 407.76C235.43 402.71 235.784 397.672 236.028 392.634C236.625 380.745 237.134 368.779 238.24 356.924C238.255 356.836 238.3 356.757 238.368 356.7C238.436 356.643 238.522 356.612 238.61 356.612C238.699 356.612 238.784 356.643 238.852 356.7C238.92 356.757 238.966 356.836 238.981 356.924C239.136 366.127 238.782 375.353 238.594 384.546C238.494 389.153 238.361 393.75 238.24 398.357C237.983 402.75 237.954 407.153 238.151 411.549C238.394 414.864 239.124 421.317 243.46 421.714C247.541 422.09 249.775 417.693 250.793 414.455C253.381 406.268 254.299 397.429 255.139 388.91C255.637 383.861 256.134 378.834 256.433 373.773C256.732 368.713 257.141 361.133 256.864 356.029C256.864 355.708 257.318 355.719 257.373 356.029C258.18 360.448 258.214 369.287 258.103 374.513C257.108 421.438 249.698 424.112 245.782 424.874C245.301 424.968 244.813 425.02 244.323 425.029C244.323 426.134 244.135 427.173 244.057 428.222C243.947 429.891 243.736 431.537 243.515 433.205C243.275 434.83 242.935 436.439 242.498 438.023C242.145 439.629 241.571 441.18 240.794 442.63C240.764 442.675 240.72 442.709 240.668 442.727C240.617 442.745 240.561 442.746 240.509 442.729C240.457 442.713 240.412 442.681 240.379 442.637C240.347 442.594 240.33 442.541 240.33 442.486C240.292 440.893 240.425 439.3 240.728 437.735C240.949 436.122 241.171 434.421 241.502 432.885C241.834 431.349 242.122 429.725 242.453 428.156C242.664 427.051 242.818 426.012 243.017 424.941C241.751 424.721 240.559 424.19 239.549 423.396C238.539 422.601 237.743 421.567 237.233 420.388C235.342 416.543 235.198 411.969 235.298 407.76Z" fill="#1D0A01"/>
<path d="M140.393 398.843C146.952 399.307 153.422 400.147 160.002 399.373C166.196 398.739 172.097 396.423 177.068 392.678C187.884 384.303 192.629 370.58 195.549 357.73C195.557 357.669 195.59 357.613 195.64 357.576C195.69 357.538 195.753 357.522 195.814 357.531C195.876 357.54 195.931 357.573 195.969 357.623C196.006 357.672 196.022 357.735 196.013 357.796C194.786 368.956 192.386 380.491 185.175 389.462C182.073 393.414 178.148 396.645 173.672 398.931C168.919 401.139 163.716 402.209 158.476 402.058C152.333 402.006 146.22 401.182 140.283 399.605C140.189 399.583 140.106 399.526 140.052 399.446C139.998 399.367 139.975 399.269 139.989 399.174C140.003 399.078 140.052 398.991 140.127 398.93C140.202 398.869 140.297 398.838 140.393 398.843Z" fill="#1D0A01"/>
<path d="M283.541 396.224C281.716 396.014 279.924 396.224 278.066 394.832C276.208 393.44 274.637 391.064 273.189 387.098C270.037 378.402 268.488 365.409 267.46 353.377C267.46 353.111 267.316 353.111 267.327 353.377C267.858 363.696 268.72 374.469 270.877 383.363C271.604 386.732 272.718 390.006 274.195 393.119C275.544 395.705 277.048 396.942 278.497 397.429C279.325 397.699 280.199 397.794 281.066 397.708C281.932 397.623 282.771 397.358 283.53 396.931C283.706 396.887 283.673 396.224 283.541 396.224Z" fill="#1D0A01"/>
<path d="M139.287 346.504C135.759 365.785 131.545 385.341 127.73 404.566C126.746 410.323 125.031 416.002 125.374 421.847C125.873 427.752 126.804 433.613 128.161 439.381C127.542 443.094 126.945 446.806 126.27 450.508C125.595 454.209 124.998 457.844 124.29 461.501C124.633 457.789 125.053 454.099 125.396 450.397C125.739 446.696 126.226 442.994 126.657 439.348C125.026 433.69 123.916 427.895 123.339 422.035C123.144 419.999 123.192 417.948 123.483 415.925C124.655 408.036 126.303 400.335 127.907 392.6C131.225 377.132 134.985 361.796 139.177 346.56L139.287 346.504Z" fill="#1D0A01"/>
<path d="M117.588 383.938C118.03 384.48 278.829 384.292 280.742 382.314C281.074 381.971 290.165 364.359 289.845 357.929C289.347 347.83 281.815 335.743 282.213 328.837C282.888 317.28 237.686 203.576 230.885 186.914C224.083 170.252 193.281 166.606 177.477 179.766C154.384 198.991 118.694 343.919 115.63 353.41C111.947 364.779 117.168 383.43 117.588 383.938Z" fill="#EBEBEB"/>
<path d="M211.641 339.002C211.132 337.378 240.772 331.61 243.98 331.135C247.187 330.66 275.456 330.881 275.754 331.456C276.053 332.03 249.797 333.378 247.674 333.334C245.55 333.29 211.884 339.798 211.641 339.002Z" fill="#C7C7C7"/>
<path d="M242.144 336.98C240.828 336.163 258.999 336.185 258.944 336.792C258.888 337.4 244.179 338.24 242.144 336.98Z" fill="#C7C7C7"/>
<path d="M188.636 172.374C188.636 172.374 189.289 291.381 187.928 301.822C186.568 312.264 162.856 455.502 162.856 455.502C162.856 455.502 111.981 445.193 105.079 440.298C98.1779 435.404 86.0895 407.152 86.0895 407.152C86.0895 407.152 116.272 334.229 119.015 326.594C122.93 315.766 159.46 202.261 168.784 186.936C173.267 179.7 180.383 174.48 188.636 172.374Z" fill="#ED7223"/>
<path d="M137.308 352.891C134.576 353.996 133.105 356.791 132.441 360.061C131.041 364.207 130.602 368.616 131.158 372.956C131.49 375.32 132.508 378.789 135.582 378.215C138.9 377.607 140.349 372.414 141.112 369.773C141.875 367.133 144.441 349.908 137.308 352.891ZM120.132 375.939C118.76 373.099 116.15 370.226 113.053 372.768C109.735 375.519 110.045 381.187 110.72 384.988C111.205 388.085 112.223 391.076 113.728 393.827C114.426 395.383 115.615 396.667 117.112 397.484C121.249 399.208 121.592 393.727 121.912 390.998C122.498 385.938 122.344 380.623 120.132 375.939ZM124.887 341.079C122.344 340.737 120.895 342.693 120.165 345.278C119.192 348.266 118.817 351.416 119.059 354.548C119.269 356.437 119.656 359.697 121.78 360.548C123.903 361.398 125.595 359.178 126.347 357.487C127.774 354.371 130.528 341.82 124.91 341.079H124.887ZM125.673 424.057C125.175 418.455 121.846 413.638 118.207 409.561C115.752 406.787 111.317 401.174 107.07 404.312C103.752 406.732 105.168 411.505 106.429 414.599C108.492 419.576 111.948 423.853 116.382 426.918C118.24 428.178 121.028 429.703 123.018 428.984C125.02 428.62 125.916 426.642 125.673 424.057ZM137.562 402.047C136.456 398.368 132.784 392.192 129.942 392.744C127.608 393.208 125.728 398.512 127.73 405.285C129.886 412.599 133.934 415.704 135.826 414.864C139.597 413.196 138.955 406.787 137.562 402.047ZM160.887 403.307C158.93 405.848 159.781 409.24 161.683 412.212C162.968 414.487 164.607 416.542 166.539 418.3C167.172 418.89 167.927 419.335 168.751 419.604L170.233 410.654C168.662 407.097 164.327 398.843 160.887 403.307ZM186.734 195.985C185.097 194.184 182.376 196.096 180.972 197.19C177.156 200.206 173.628 204.99 172.688 210.017C171.449 213.078 171.173 216.094 174.037 216.724C176.404 217.243 179.246 214.017 180.673 212.559C183.151 210.062 185.097 207.089 186.391 203.819C187.11 201.841 188.404 197.819 186.734 195.985ZM180.861 255.196C179.235 256.92 177.167 259.914 179.556 261.947C181.945 263.98 186.004 262.411 188.725 261.329C188.725 257.45 188.725 253.429 188.725 249.352C185.795 250.847 183.137 252.823 180.861 255.196ZM169.624 241.01C165.377 240.148 161.175 243.971 158.642 246.899C156.539 249.225 154.855 251.898 153.665 254.799C152.884 256.316 152.628 258.048 152.935 259.726C154.196 264.024 158.664 260.831 160.998 259.362C165.311 256.644 169.348 253.174 171.615 248.512C172.953 245.65 173.573 241.827 169.624 241.01ZM187.608 234.248C186.269 235.607 183.958 237.971 184.655 240.137C185.197 241.927 187.132 242.192 188.78 241.982C188.78 239.054 188.78 236.115 188.78 233.143C188.315 233.585 187.95 233.938 187.608 234.248ZM142.473 256.666C139.21 266.234 135.969 275.792 133.027 284.631C134.454 285.172 136.135 284.531 137.65 283.062C141.709 279.15 143.346 273.526 144.286 268.146C144.817 264.82 146.166 258.699 142.473 256.666ZM164.703 266.709C162.867 265.185 157.569 267.052 153.554 272.875C149.219 279.139 149.352 284.233 151.199 285.183C154.86 287.061 159.449 282.531 162.259 278.476C164.448 275.316 166.937 268.566 164.725 266.709H164.703ZM175.94 297.381C172.732 297.458 170.664 300.287 169.514 303.591C168.556 306.024 167.989 308.593 167.833 311.203C167.766 312.872 168.164 315.17 170.332 315.137C172.5 315.103 174.623 312.065 175.563 310.352C176.769 308.143 182.31 297.215 175.94 297.381Z" fill="#1D0A01"/>
<path d="M154.196 199.731C112.523 244.523 83.4131 282.531 85.2269 298.519C89.2859 334.34 108.906 340.505 112.18 339.024C146.786 323.876 170.963 249.119 182.421 206.88C193.79 164.938 166.129 186.903 154.196 199.731Z" fill="#F2C7B5"/>
<path d="M83.1034 271.372L145.138 310.374C145.138 310.374 178.152 239.009 184.511 201.576C189.665 171.28 180.717 164.805 152.493 192.25C125.772 218.182 83.1034 271.372 83.1034 271.372Z" fill="#ED7223"/>
<path d="M109.559 239.419C106.241 243.286 103.133 246.998 100.268 250.468C100.735 252.037 101.393 253.543 102.226 254.953C102.902 256.502 104.068 257.786 105.544 258.611C109.68 260.334 110.023 254.865 110.344 252.125C110.985 247.882 110.717 243.551 109.559 239.419ZM127.553 218.68C126.078 220.359 124.604 222.05 123.129 223.751C121.691 225.387 120.253 227.066 118.838 228.657L118.694 228.823C118.915 230.745 119.402 233.585 121.348 234.347C123.483 235.231 125.175 232.988 125.916 231.287C126.812 229.209 128.36 222.845 127.553 218.68ZM140.825 256.246C136.876 255.141 134.023 259.274 132.397 262.19C129.805 266.915 128.63 272.285 129.013 277.659C129.19 279.869 129.743 283.018 131.545 284.111C133.116 285.47 135.206 284.929 137.075 283.117C141.123 279.217 142.793 273.604 143.711 268.223C144.342 264.522 145.923 257.561 140.825 256.213V256.246ZM180.463 197.223C176.647 200.239 173.119 205.023 172.179 210.051C170.941 213.111 170.664 216.128 173.529 216.757C175.895 217.277 178.738 214.05 180.164 212.592C181.19 211.535 182.133 210.401 182.985 209.2C183.604 206.526 184.091 203.974 184.533 201.565C184.894 199.4 185.189 197.359 185.418 195.444C183.781 194.748 181.646 196.24 180.463 197.19V197.223ZM169.149 241.01C164.902 240.148 160.699 243.971 158.166 246.899C156.064 249.225 154.38 251.898 153.19 254.799C152.409 256.316 152.152 258.048 152.46 259.727C153.72 264.025 158.189 260.831 160.522 259.362C164.285 257.144 167.513 254.126 169.978 250.523C170.719 248.545 171.438 246.556 172.19 244.567C172.24 243.697 171.952 242.841 171.385 242.178C170.818 241.515 170.017 241.097 169.149 241.01ZM153.079 272.875C148.743 279.139 148.876 284.233 150.723 285.183C152.57 286.133 154.738 285.415 156.751 283.913C158.963 278.565 161.418 272.665 163.873 266.477C161.75 265.417 156.828 267.394 153.046 272.875H153.079Z" fill="#1D0A01"/>
<path d="M144.817 292.232C141.173 289.259 137.355 286.507 133.381 283.99C129.389 281.239 125.319 278.653 121.216 276.035C117.112 273.416 100.578 263.638 96.4084 261.207C96.2204 261.096 96.0545 261.439 96.2315 261.561C100.224 264.323 116.04 275.272 120.043 277.813C124.047 280.355 128.028 282.94 132.087 285.349C136.146 287.757 140.316 290.531 144.662 292.431C144.751 292.464 144.884 292.365 144.817 292.232Z" fill="#1D0A01"/>
<path d="M138.292 305.845C140.979 307.336 143.623 308.872 146.277 310.408L145.713 310.596C153.455 288.741 161.871 267.151 170.41 245.606C173.241 238.424 176.172 231.242 178.948 224.061C172.644 246.39 164.072 268.002 155.468 289.525C152.493 296.829 149.451 304.099 146.233 311.303C143.579 309.502 140.913 307.701 138.292 305.845Z" fill="#1D0A01"/>
<path d="M179.766 229.673C178.744 234.197 176.303 238.277 172.799 241.319C175.132 237.463 177.3 233.452 179.766 229.673Z" fill="#1D0A01"/>
<path d="M290.033 320.661C281.771 305.038 276.33 270.146 295.784 202.847C298.482 193.533 366.976 208.018 364.62 218.105C361.634 230.823 347.334 279.515 345.818 282.94C333.21 311.866 295.64 331.257 290.033 320.661Z" fill="#F2C7B5"/>
<path d="M284.525 307.833C282.812 302.766 281.633 297.533 281.008 292.221C280.698 289.569 280.433 286.906 280.322 284.233C280.215 281.543 280.274 278.849 280.499 276.167C280.885 270.841 281.539 265.539 282.457 260.279C283.33 255.019 284.546 249.823 286.095 244.722C285.166 249.959 284.492 255.218 283.883 260.477C283.275 265.737 282.778 271.018 282.413 276.288C282.269 278.918 282.136 281.559 282.236 284.155C282.335 286.752 282.457 289.426 282.667 292.055C283.065 297.27 283.596 302.53 284.525 307.833Z" fill="#1D0A01"/>
<path d="M326.906 236.015C318.633 236.104 295.651 211.365 295.784 202.869C296.149 179.721 314.862 155.458 316.709 138.873C318.291 124.941 319.032 104.081 326.563 104.622C337.546 105.417 339.78 131.913 340.134 147.193C347.289 142.951 353.837 139.967 358.305 139.625C373.103 138.52 386.552 203.874 375.514 214.172C364.908 224.105 335.168 235.883 326.906 236.015Z" fill="#F2C7B5"/>
<path d="M394.382 231.375C384.428 194.913 367.131 136.531 362.386 131.868C358.471 137.061 348.749 194.339 343.418 230.06L341.207 229.729C341.207 229.485 344.9 205.045 349.147 180.716C357.863 130.852 360.528 129.979 361.811 129.559C362.03 129.489 362.261 129.465 362.49 129.49C362.719 129.514 362.939 129.587 363.138 129.703C369.498 133.117 392.037 214.514 396.495 230.8L394.382 231.375Z" fill="#1D0A01"/>
<path d="M334.615 229.054L332.469 228.535C332.525 228.303 338.375 204.139 344.801 180.075C357.951 130.83 360.572 129.968 361.833 129.559C362.059 129.488 362.297 129.467 362.531 129.495C362.766 129.524 362.992 129.602 363.193 129.725C369.221 133.238 385.435 212.459 388.631 228.303L386.419 228.745C379.286 193.289 366.589 136.487 362.287 131.846C358.205 136.332 343.23 193.444 334.615 229.054Z" fill="#1D0A01"/>
<path d="M316.355 214.559L429.574 214.139L446.109 405.517L314.973 412.124L316.355 214.559Z" fill="#ED7223"/>
<path d="M314.973 412.124L274.98 404.61L300.617 212.161L307.927 217.519L316.355 214.558L314.973 412.124Z" fill="#ED7223"/>
<path opacity="0.2" d="M314.973 412.124L274.98 404.61L300.617 212.161L307.927 217.519L316.355 214.558L314.973 412.124Z" fill="black"/>
<path opacity="0.1" d="M294.589 388.181L274.98 404.61L300.617 212.161L307.927 217.519L294.589 388.181Z" fill="black"/>
<g opacity="0.1">
<path d="M314.154 407.848C311.19 404.346 308.093 401.064 304.997 397.783C301.9 394.501 298.715 391.363 295.496 388.27L295.054 387.839L294.589 388.181C291.636 390.291 288.694 392.402 285.819 394.678C282.943 396.954 280.046 399.164 277.247 401.606C280.355 399.871 283.397 397.993 286.416 396.081C289.435 394.17 292.422 392.137 295.397 390.082L294.479 389.993C297.664 393.146 300.89 396.221 304.156 399.219C307.397 402.147 310.715 405.064 314.154 407.848Z" fill="black"/>
<path d="M294.91 389.595C296.37 375.287 297.62 360.968 298.847 346.626C300.075 332.285 301.137 317.954 302.298 303.613C303.459 289.271 304.388 274.886 305.317 260.522L306.678 238.966C307.065 231.773 307.518 224.602 307.85 217.387C307.098 224.536 306.479 231.751 305.782 238.855L303.913 260.323C302.685 274.687 301.612 288.995 300.462 303.337C299.312 317.678 298.372 332.064 297.443 346.427C296.514 360.791 295.618 375.232 294.91 389.595Z" fill="black"/>
</g>
<path d="M347.743 229.01L345.531 228.745C345.531 228.491 348.55 203.907 352.167 179.555C359.599 129.493 362.209 129.172 363.78 128.984C365.35 128.797 368.015 128.454 384.13 177.478C391.949 201.299 399.215 225.497 399.293 225.74L397.169 226.38C386.718 191.51 368.745 135.78 363.99 131.36C360.207 136.465 352.067 193.477 347.743 229.01Z" fill="#1D0A01"/>
<path d="M340.134 227.751L337.922 227.309C337.922 227.066 342.865 202.825 348.362 178.804C359.643 129.482 362.32 129.162 363.757 128.985C365.494 128.775 368.104 128.466 378.777 177.037C383.953 200.582 388.542 224.547 388.587 224.757L386.375 225.165C379.838 190.914 368.126 136.111 363.923 131.36C359.798 136.266 347.212 192.582 340.134 227.751Z" fill="#1D0A01"/>
<path d="M323.798 218.315L417.63 218.348L454.382 366.47L338.995 372.127L323.798 218.315Z" fill="#9D431C"/>
<path d="M323.798 218.315L312.65 225.143L302.033 223.232L301.977 384.546L338.995 372.127L323.798 218.315Z" fill="#5F270F"/>
<path opacity="0.1" d="M312.65 225.143L302.033 223.232L301.977 384.546L319.817 360.537L312.65 225.143Z" fill="black"/>
<path d="M454.382 366.47L338.995 372.127L301.977 384.546L415.374 378.756L454.382 366.47Z" fill="#1D0A01"/>
<path d="M337.59 371.176C335.068 369.508 322.316 360.813 319.673 359.431L319.308 359.244L319.02 359.52C317.207 361.288 305.682 378.513 304.012 380.513C305.992 378.955 317.981 362.326 319.817 360.625L319.164 360.724C321.774 362.05 334.836 370.049 337.59 371.176Z" fill="#1D0A01"/>
<path d="M319.054 360.393C318.855 349.134 318.467 337.886 318.058 326.639C317.649 315.391 317.096 304.143 316.62 292.895C316.145 281.648 315.514 270.411 314.807 259.163L313.756 242.313C313.347 236.69 312.993 231.077 312.528 225.464C312.617 231.088 312.805 236.723 312.938 242.347L313.524 259.218C313.933 270.466 314.475 281.714 314.961 292.962C315.448 304.209 316.067 315.446 316.786 326.683C317.505 337.92 318.158 349.167 319.054 360.393Z" fill="#1D0A01"/>
<path d="M335.853 145.922C333.741 153.336 343.695 151.568 343.695 151.568C343.695 151.568 329.981 157.557 330.777 166.042C331.562 174.219 343.507 171.655 344.37 171.49C343.64 171.81 331.186 177.644 332.856 186.085C334.604 194.869 346.128 190.24 346.902 189.93C346.316 190.449 338.685 197.454 341.372 203.576C346.073 214.105 366.091 196.747 375.37 197.797C375.37 197.797 375.37 213.707 375.481 214.171C375.481 214.171 394.869 198.051 395.588 185.444C395.721 183.615 395.225 181.794 394.181 180.285C393.137 178.776 391.608 177.668 389.847 177.147C389.847 177.147 396.671 172.639 395.565 165.943C394.99 162.518 388.93 160.419 388.93 160.419C388.93 160.419 394.249 156.585 392.889 150.696C391.783 145.989 385.966 144.586 385.966 144.586C385.966 144.586 389.35 138.531 386.695 134.089C381.497 125.084 340.366 130.045 335.853 145.922Z" fill="#F2C7B5"/>
<path d="M385.158 144.21C385.188 144.21 385.216 144.198 385.236 144.178C385.257 144.157 385.269 144.129 385.269 144.1C385.269 144.07 385.257 144.042 385.236 144.021C385.216 144.001 385.188 143.989 385.158 143.989C371.245 142.332 355.452 144.762 343.131 151.602C342.722 151.834 342.91 152.585 343.407 152.419C357.475 147.79 370.305 144.796 385.158 144.21Z" fill="#1D0A01"/>
<path d="M389.239 160.297C389.394 160.297 389.394 160.032 389.239 160.01C374.862 158.375 357.166 161.601 343.894 171.158C343.441 171.49 343.363 172.263 343.894 171.898C353.195 166.208 375.846 160.761 389.239 160.297Z" fill="#1D0A01"/>
<path d="M346.205 190.925C359.289 182.241 373.855 178.628 389.339 177.059C389.538 177.059 389.483 176.76 389.339 176.727C381.597 175.434 371.798 177.467 364.344 179.677C357.38 181.609 351.043 185.327 345.962 190.461C345.708 190.715 345.929 191.102 346.205 190.925Z" fill="#1D0A01"/>
<path d="M343.463 151.458C342.976 151.723 343.905 152.132 343.463 152.42C341.461 153.624 330.025 161.877 331.64 166.639C332.934 170.451 338.961 171.357 341.417 170.794L347.577 169.391L342.279 172.86C339.906 174.371 337.798 176.264 336.041 178.462C334.36 180.672 333.243 183.224 333.73 185.666C333.881 186.866 334.439 187.978 335.31 188.818C336.181 189.658 337.313 190.175 338.519 190.284C341.227 190.47 343.938 189.96 346.394 188.804L353.284 185.853L347.754 190.87C346.218 192.266 344.865 193.851 343.728 195.588C342.579 197.206 341.936 199.128 341.881 201.112C341.892 201.998 342.151 202.864 342.627 203.612C343.104 204.359 343.78 204.959 344.58 205.344C346.491 205.939 348.533 205.973 350.464 205.443C354.633 204.581 358.67 202.814 362.762 201.256C364.808 200.46 366.865 199.654 368.956 198.957C371.012 198.132 373.222 197.755 375.437 197.853C373.257 198.001 371.127 198.571 369.166 199.532C367.153 200.383 365.184 201.333 363.204 202.283C359.259 204.314 355.13 205.968 350.873 207.222C348.573 207.942 346.113 207.977 343.794 207.321C342.574 206.825 341.525 205.983 340.777 204.9C340.028 203.817 339.613 202.539 339.581 201.222C339.586 198.78 340.321 196.394 341.693 194.372C342.93 192.416 344.417 190.63 346.117 189.058L347.488 191.124C344.605 192.536 341.402 193.168 338.198 192.958C336.423 192.784 334.763 192.004 333.498 190.748C332.314 189.469 331.543 187.864 331.286 186.141C330.689 182.671 332.292 179.412 334.217 177.025C336.183 174.64 338.53 172.594 341.162 170.971L342.025 173.026C338.884 173.633 332.071 173.357 329.284 167.689C326.707 159.778 340.786 152.574 343.463 151.458Z" fill="#1D0A01"/>
<path d="M343.695 151.569C342.107 151.538 340.533 151.266 339.028 150.762C338.417 150.574 337.868 150.226 337.438 149.753C337.009 149.281 336.713 148.702 336.583 148.077C336.486 146.675 336.797 145.274 337.479 144.044C338.165 142.652 338.961 141.216 339.835 139.769C338.343 140.635 337.051 141.806 336.041 143.205C335.442 143.937 334.993 144.781 334.722 145.687C334.45 146.594 334.361 147.545 334.46 148.486C334.673 149.512 335.193 150.449 335.953 151.171C336.7 151.815 337.611 152.24 338.585 152.397C340.333 152.67 342.123 152.38 343.695 151.569Z" fill="#1D0A01"/>
<path d="M224.448 206.924C213.941 209.133 196.5 192.648 189.798 179.544C189.344 178.638 190.97 169.357 192.408 157.977C193.259 151.071 194.045 143.359 194.244 136.266C194.244 134.807 238.483 148.342 238.483 148.342C238.483 148.342 233.617 163.093 233.296 175.445C233.283 176.422 233.357 177.398 233.517 178.362C233.549 178.519 233.567 178.678 233.572 178.837C234.402 184.395 234.579 204.824 224.448 206.924Z" fill="#F2C7B5"/>
<path d="M196.953 136.575C198.668 148.618 205.303 177.788 229.027 179.003C230.546 179.097 232.07 179.06 233.583 178.892C233.608 178.731 233.608 178.567 233.583 178.406C233.43 177.442 233.352 176.466 233.351 175.489C233.639 163.115 238.45 148.375 238.45 148.375C238.45 148.375 206.564 138.575 196.953 136.575Z" fill="#1D0A01"/>
<path d="M188.625 86.7116C183.847 102.5 192.286 148.033 203.534 158.165C219.847 172.86 246.501 174.208 258.988 154.629C271.076 135.658 258.988 76.5024 246.468 67.3429C227.965 53.7085 195.692 63.3984 188.625 86.7116Z" fill="#F2C7B5"/>
<path d="M188.625 86.7116C183.847 102.5 192.286 148.033 203.534 158.165C219.847 172.86 246.501 174.208 258.988 154.629C271.076 135.658 258.988 76.5024 246.468 67.3429C227.965 53.7085 195.692 63.3984 188.625 86.7116Z" fill="#F2C7B5"/>
<path d="M226.726 115.803C226.726 115.693 226.505 115.991 226.527 116.113C227.047 119.195 227.124 122.808 224.459 124.212C224.382 124.212 224.459 124.411 224.514 124.377C227.865 123.438 227.766 118.643 226.726 115.803Z" fill="#1D0A01"/>
<path d="M223.53 112.953C218.498 113.251 219.471 123.284 224.127 123.007C228.783 122.731 227.766 112.71 223.53 112.953Z" fill="#1D0A01"/>
<path d="M245.462 113.814C245.462 113.693 245.716 113.947 245.716 114.068C245.793 117.195 246.402 120.753 249.288 121.626C249.377 121.626 249.377 121.814 249.288 121.803C245.804 121.515 245.03 116.775 245.462 113.814Z" fill="#1D0A01"/>
<path d="M248.072 110.401C253.06 109.738 254.011 119.77 249.388 120.345C244.765 120.919 243.88 110.953 248.072 110.401Z" fill="#1D0A01"/>
<path d="M219.007 104.843C220.36 104.548 221.697 104.179 223.01 103.738C224.548 103.318 225.808 103.141 226.892 101.893C227.158 101.505 227.289 101.041 227.265 100.572C227.241 100.103 227.063 99.6548 226.759 99.2963C225.355 97.8378 223.353 97.8931 221.484 98.324C219.593 98.6965 217.909 99.7602 216.761 101.307C215.523 102.931 217.171 105.152 219.007 104.843Z" fill="#1D0A01"/>
<path d="M252.673 102.799C251.294 102.713 249.92 102.554 248.558 102.324C246.988 102.125 245.705 102.136 244.455 101.042C244.137 100.697 243.942 100.256 243.9 99.7886C243.858 99.3212 243.971 98.853 244.223 98.4565C245.395 96.8213 247.386 96.5782 249.288 96.744C251.216 96.8398 253.038 97.6516 254.398 99.02C254.693 99.348 254.886 99.755 254.953 100.191C255.02 100.627 254.958 101.073 254.774 101.474C254.591 101.875 254.295 102.214 253.921 102.45C253.548 102.685 253.114 102.806 252.673 102.799Z" fill="#1D0A01"/>
<path d="M227.589 143.779C228.396 144.442 229.237 145.381 230.365 145.37C231.537 145.243 232.669 144.866 233.683 144.265C233.782 144.265 233.893 144.265 233.838 144.409C233.453 145.083 232.889 145.638 232.207 146.011C231.526 146.383 230.754 146.559 229.978 146.519C229.329 146.414 228.726 146.118 228.245 145.669C227.765 145.221 227.429 144.64 227.279 144C227.235 143.779 227.467 143.691 227.589 143.779Z" fill="#1D0A01"/>
<path d="M229.978 134.189C230.881 135.345 232.013 136.303 233.303 137.002C234.593 137.702 236.014 138.128 237.476 138.255C238.754 138.378 240.042 138.319 241.303 138.078C241.547 138.054 241.788 138.006 242.022 137.935L242.697 137.769C242.858 137.721 242.999 137.621 243.099 137.486C243.199 137.35 243.252 137.186 243.25 137.017C243.261 136.911 243.261 136.804 243.25 136.697V136.421C243.095 134.023 242.531 130.41 242.531 130.41C243.449 130.764 248.061 132.366 247.906 131.128C246.346 120.842 244.588 109.395 240.894 99.4844C240.876 99.4096 240.83 99.345 240.764 99.3046C240.699 99.2642 240.62 99.2513 240.546 99.2689C240.471 99.2865 240.406 99.3331 240.366 99.3983C240.325 99.4636 240.312 99.5422 240.33 99.617C241.436 109.561 244.289 119.251 245.561 129.228C244.079 128.819 241.668 128.024 240.418 128.123C240.087 128.256 241.635 135.095 241.613 136.178C241.622 136.218 241.622 136.259 241.613 136.299C237.642 137.172 234.49 136.233 230.343 133.891C230.033 133.725 229.801 133.957 229.978 134.189Z" fill="#1D0A01"/>
<path d="M239.81 136.995C238.65 138.823 237.039 140.322 235.132 141.348C234.078 141.872 232.887 142.054 231.725 141.867C229.182 141.448 228.905 139.172 229.193 137.183C229.349 136.125 229.631 135.091 230.033 134.1C232.899 136.083 236.325 137.098 239.81 136.995Z" fill="#1D0A01"/>
<path d="M235.132 141.348C234.078 141.872 232.887 142.054 231.725 141.868C229.182 141.448 228.905 139.172 229.193 137.183C231.88 137.216 234.678 138.785 235.132 141.348Z" fill="#FFB595"/>
<path d="M198.612 125.725C200.957 123.427 203.313 108.832 203.313 108.832C203.313 108.832 230.144 96.7993 232.19 71.9282C232.19 71.9282 245.981 85.9051 257.627 88.5789C257.627 88.5789 256.068 63.067 232.422 60.6915C232.422 60.6915 208.975 52.8689 190.395 75.6075C171.814 98.3461 191.501 126.587 191.501 126.587L198.612 125.725Z" fill="#1D0A01"/>
<path d="M231.316 67.2876C232.621 71.2099 232.035 75.7731 231.106 79.7397C230.109 83.789 228.533 87.6738 226.428 91.2747C224.411 95.0143 221.796 98.3993 218.686 101.296C215.036 104.478 210.546 106.588 206.144 108.533C206.011 108.599 206.144 108.842 206.255 108.787C210.911 106.887 215.589 104.92 219.604 101.837C223.03 99.0306 225.961 95.6693 228.275 91.8935C230.8 88.1953 232.512 84.0039 233.296 79.596C233.993 75.2428 233.119 71.2983 231.847 67.155C231.703 66.8567 231.217 66.9671 231.316 67.2876Z" fill="#1D0A01"/>
<path d="M236.614 55.4873C231.77 52.3826 220.19 46.2394 209.982 45.8748C199.574 45.5101 186.126 50.4159 181.425 51.9627C177.554 53.2333 164.581 54.515 154.638 59.9511C148.091 63.5198 145.149 73.0219 146.045 77.7287C147.383 84.8111 161.938 80.7119 162.635 83.4521C163.077 85.2751 160.544 94.3131 164.968 98.567C169.392 102.821 169.204 102.147 171.737 104.478C177.875 110.146 185.628 76.7675 198.181 67.8179C210.734 58.8683 236.614 55.4873 236.614 55.4873Z" fill="#ED7223"/>
<path opacity="0.1" d="M235.508 55.9955C235.508 55.9955 210.634 58.8682 198.092 67.8289C185.551 76.7896 179.733 108.865 173.584 103.185C170.874 100.677 169.89 97.451 169.447 92.2138C172.389 83.0432 178.528 69.0111 187.995 60.172C196.843 51.8743 210.28 49.1231 224.061 49.7308C228.045 51.4967 231.874 53.5922 235.508 55.9955Z" fill="black"/>
<path d="M172.865 119.096C179.91 108.909 186.822 92.5786 198.092 80.8447C209.362 69.1108 237.521 65.7408 241.226 66.5585C250.284 68.5362 251.6 73.1878 253.17 72.6354C254.741 72.0829 247.264 60.2164 244.942 58.2718C241.322 55.6627 237.166 53.8924 232.776 53.0899C228.783 52.5485 203.888 51.079 193.315 60.0949C182.741 69.1108 165.466 96.3684 166.583 104.235C166.848 106.114 169.06 107.66 169.414 110.323C169.879 113.837 169.967 117.814 170.598 120.267C171.162 122.333 172.467 119.726 172.865 119.096Z" fill="#ED7223"/>
<path d="M201.145 75.265C199.247 73.6525 197.49 71.882 195.892 69.9726C194.247 68.0678 192.833 65.9762 191.678 63.741C191.674 63.7205 191.665 63.701 191.653 63.6841C191.641 63.6671 191.625 63.6531 191.607 63.6428C191.589 63.6326 191.568 63.6265 191.548 63.6249C191.527 63.6233 191.506 63.6263 191.486 63.6337C191.467 63.641 191.449 63.6525 191.434 63.6674C191.419 63.6823 191.408 63.7002 191.401 63.7199C191.394 63.7396 191.392 63.7606 191.393 63.7814C191.395 63.8022 191.402 63.8224 191.412 63.8404C192.257 66.2928 193.489 68.5943 195.062 70.6576C196.668 72.6766 198.637 74.3779 200.868 75.6738C201.123 75.8064 201.344 75.4418 201.145 75.265Z" fill="#1D0A01"/>
<path d="M173.717 114.036C173.532 113.388 173.315 112.75 173.064 112.124C172.831 111.406 172.675 110.665 172.6 109.914C172.652 108.467 172.548 107.019 172.29 105.594C171.892 104.478 171.369 103.411 170.73 102.412C169.941 101.324 169.551 99.9974 169.624 98.6555C169.624 98.4787 169.37 98.4234 169.348 98.6555C168.917 101.252 170.377 103.384 171.162 105.749C171.671 107.263 171.383 108.843 171.626 110.389C171.75 111.857 172.348 113.246 173.329 114.345C173.451 114.389 173.772 114.268 173.717 114.036Z" fill="#1D0A01"/>
<path d="M178.163 105.229C177.51 104.124 176.769 103.108 176.216 101.915C175.691 100.78 175.247 99.6098 174.889 98.4122C174.513 97.241 174.247 96.0367 173.905 94.8544C173.495 93.4623 172.92 92.1032 172.577 90.689C172.577 90.5012 172.268 90.6006 172.312 90.7884C172.655 92.2469 172.754 93.7827 173.053 95.2632C173.339 96.5383 173.708 97.7933 174.159 99.0198C174.56 100.205 175.074 101.348 175.696 102.434C176.284 103.547 177.093 104.528 178.074 105.318C178.086 105.32 178.099 105.319 178.11 105.315C178.122 105.311 178.132 105.305 178.141 105.296C178.15 105.287 178.156 105.277 178.16 105.265C178.164 105.254 178.165 105.241 178.163 105.229Z" fill="#1D0A01"/>
<path d="M182.631 97.3405C181.067 95.5291 179.774 93.5008 178.793 91.3189C177.853 89.1864 177.046 86.9877 176.249 84.8C176.249 84.6453 175.94 84.7006 175.973 84.8C176.325 87.2001 176.967 89.5486 177.886 91.794C178.354 92.8774 178.944 93.9042 179.645 94.8545C180.461 95.8355 181.389 96.718 182.41 97.4841C182.531 97.6388 182.741 97.4731 182.631 97.3405Z" fill="#1D0A01"/>
<path d="M187.309 89.8495C186.507 89.0944 185.861 88.1898 185.407 87.1868C184.81 86.104 184.246 84.9991 183.715 83.8721C183.206 82.7672 182.675 81.7507 182.166 80.679C181.583 79.6349 181.228 78.4785 181.127 77.2869C181.127 77.2488 181.112 77.2123 181.085 77.1854C181.058 77.1584 181.021 77.1433 180.983 77.1433C180.945 77.1433 180.908 77.1584 180.881 77.1854C180.854 77.2123 180.839 77.2488 180.839 77.2869C180.751 78.4767 180.906 79.6719 181.293 80.8005C181.652 82.0622 182.122 83.2898 182.697 84.4687C183.27 85.6354 183.917 86.7646 184.633 87.8497C185.198 88.8592 186.059 89.6725 187.099 90.181C187.298 90.2584 187.497 90.0042 187.309 89.8495Z" fill="#1D0A01"/>
<path d="M191.39 80.0492C190.716 79.1431 190.052 78.2371 189.455 77.2759C188.857 76.3146 188.349 75.3423 187.774 74.3479C187.198 73.3535 186.668 72.2818 186.137 71.21C186.12 71.1807 186.093 71.1584 186.061 71.147C186.029 71.1356 185.994 71.1359 185.962 71.1478C185.93 71.1597 185.904 71.1825 185.887 71.2121C185.87 71.2417 185.865 71.2762 185.871 71.3095C186.152 72.4417 186.522 73.55 186.977 74.6242C187.446 75.6956 187.989 76.7331 188.603 77.7289C189.203 78.7166 189.861 79.6684 190.572 80.5795C191.242 81.5259 192.086 82.3359 193.06 82.9661C193.204 83.0434 193.414 82.8777 193.337 82.723C192.778 81.7695 192.126 80.8738 191.39 80.0492Z" fill="#1D0A01"/>
<path d="M208.5 71.4421C207.825 70.2488 207.162 69.0886 206.376 67.9727C205.573 66.8167 204.702 65.7099 203.766 64.658C201.993 62.6026 199.998 60.7498 197.816 59.1336C197.694 59.0452 197.495 59.1336 197.606 59.3214C201.112 63.4427 204.795 67.4313 208.268 71.5857C208.273 71.6078 208.283 71.6283 208.298 71.6455C208.313 71.6628 208.332 71.6762 208.353 71.6849C208.374 71.6935 208.396 71.697 208.419 71.6952C208.442 71.6933 208.464 71.6861 208.483 71.6742C208.502 71.6622 208.519 71.6458 208.53 71.6264C208.542 71.607 208.549 71.585 208.551 71.5624C208.552 71.5397 208.549 71.517 208.54 71.4961C208.531 71.4752 208.517 71.4567 208.5 71.4421Z" fill="#1D0A01"/>
<path d="M214.87 64.9232C214.169 63.7605 213.342 62.6786 212.404 61.697C210.354 59.6988 208.087 57.9349 205.646 56.4377C205.491 56.3383 205.315 56.5261 205.458 56.6476C207.449 58.4817 209.473 60.2827 211.353 62.2384C212.3 63.1862 213.194 64.1858 214.03 65.2326C214.848 66.3375 215.412 67.5087 216.186 68.5473C216.2 68.5658 216.22 68.5795 216.242 68.5865C216.264 68.5934 216.288 68.5931 216.31 68.5858C216.332 68.5785 216.351 68.5644 216.365 68.5456C216.378 68.5268 216.385 68.5042 216.385 68.481C216.113 67.2091 215.599 66.0013 214.87 64.9232Z" fill="#1D0A01"/>
<path d="M222.557 62.7023C221.931 61.5648 221.19 60.4947 220.345 59.5092C218.717 57.6331 216.784 56.0455 214.627 54.8134C214.483 54.725 214.339 54.946 214.461 55.0454C216.357 56.6564 218.111 58.427 219.703 60.3379C220.5 61.2881 221.241 62.2714 222.004 63.2437C222.689 64.2932 223.428 65.3073 224.216 66.2822C224.282 66.3484 224.393 66.2822 224.371 66.1717C223.877 64.9606 223.27 63.799 222.557 62.7023Z" fill="#1D0A01"/>
<path d="M228.407 59.2328C227.633 58.3599 226.793 57.5202 225.963 56.6915C225.177 55.8359 224.259 55.1121 223.243 54.548C223.088 54.4596 222.988 54.6696 223.088 54.7801C224.625 56.4595 226.129 58.1721 227.622 59.8846C228.914 61.5528 230.027 63.3527 230.94 65.2544C230.94 65.3318 231.117 65.2544 231.106 65.1881C230.828 62.9765 229.888 60.9005 228.407 59.2328Z" fill="#1D0A01"/>
<path d="M235.076 58.8903C233.676 57.0865 231.946 55.5643 229.978 54.4045C229.834 54.3271 229.679 54.5591 229.812 54.6475C231.575 55.9886 233.123 57.5907 234.402 59.3986C235.711 61.1894 236.823 63.1156 237.72 65.144C237.72 65.2434 237.93 65.2213 237.908 65.144C237.47 62.8659 236.5 60.7232 235.076 58.8903Z" fill="#1D0A01"/>
<path d="M242.907 64.0834C242.766 63.597 242.593 63.1208 242.387 62.6581C241.962 61.7275 241.443 60.8427 240.839 60.0174C239.57 58.3691 238.14 56.8516 236.57 55.4874C236.54 55.4625 236.502 55.4502 236.464 55.4534C236.425 55.4565 236.39 55.4747 236.365 55.504C236.34 55.5333 236.328 55.5713 236.331 55.6096C236.334 55.6479 236.352 55.6835 236.381 55.7084C237.877 57.0897 239.202 58.6438 240.33 60.3379C240.882 61.1592 241.374 62.0196 241.801 62.9123C242.011 63.3432 242.199 63.7962 242.376 64.2492C242.501 64.7069 242.671 65.1511 242.885 65.575C242.898 65.5979 242.918 65.6169 242.941 65.63C242.964 65.6431 242.991 65.6501 243.017 65.6501C243.044 65.6501 243.07 65.6431 243.094 65.63C243.117 65.6169 243.136 65.5979 243.15 65.575C243.164 65.0669 243.082 64.5607 242.907 64.0834Z" fill="#1D0A01"/>
<path d="M248.005 65.3652C247.628 64.6027 247.203 63.8647 246.734 63.1554C246.28 62.4544 245.777 61.7861 245.229 61.1555C244.665 60.5036 244.123 59.8739 243.537 59.1999C243.526 59.1816 243.512 59.1659 243.494 59.1539C243.477 59.142 243.456 59.1341 243.435 59.1309C243.414 59.1276 243.393 59.129 243.373 59.1351C243.352 59.1411 243.333 59.1516 243.317 59.1657C243.302 59.1799 243.289 59.1974 243.281 59.217C243.273 59.2366 243.269 59.2578 243.27 59.279C243.271 59.3002 243.276 59.321 243.286 59.3398C243.296 59.3586 243.31 59.3749 243.327 59.3877C243.897 60.04 244.411 60.7385 244.864 61.4759C245.296 62.172 245.749 62.846 246.181 63.531C246.612 64.2161 247.065 64.9011 247.497 65.5861C247.887 66.3259 248.315 67.045 248.78 67.7407C248.868 67.8511 249.012 67.7407 248.979 67.6302C248.741 66.8408 248.415 66.0809 248.005 65.3652Z" fill="#1D0A01"/>
<path d="M199.807 124.267C199.807 124.267 189.167 109.771 182.565 113.594C175.962 117.416 184.179 138.597 192.098 141.337C193.089 141.76 194.156 141.977 195.234 141.977C196.312 141.976 197.378 141.758 198.369 141.334C199.36 140.911 200.255 140.292 201 139.514C201.745 138.736 202.325 137.815 202.704 136.807L199.807 124.267Z" fill="#F2C7B5"/>
<path d="M185.064 119.604C184.942 119.604 184.92 119.77 185.064 119.814C190.594 121.924 193.635 126.963 195.781 132.2C194.1 130.2 191.844 129.139 189.145 131.15C189.012 131.25 189.145 131.471 189.3 131.437C190.262 131.109 191.302 131.085 192.278 131.37C193.254 131.655 194.118 132.234 194.752 133.028C195.8 134.364 196.701 135.809 197.44 137.337C197.705 137.824 198.546 137.547 198.391 136.984C198.391 136.984 198.391 136.896 198.391 136.851C198.303 129.835 192.629 120.145 185.064 119.604Z" fill="#1D0A01"/>
<path d="M194.365 219.21C198.303 235.054 188.116 252.71 188.116 252.71C160.898 264.632 123.527 254.29 122.642 252.511C122.642 252.511 121.536 240.556 119.535 237.186C117.533 233.817 102.79 216.492 98.7974 212.161C94.8048 207.83 93.5329 188.383 94.8822 184.748C96.2315 181.113 120.707 181.599 126.303 184.097C135.096 187.798 144.139 190.874 153.367 193.3C153.367 193.3 162.27 155.414 180.098 156.054C188.282 156.353 178.395 172.628 177.046 189.201C176.26 198.847 191.423 207.388 194.365 219.21Z" fill="#F2C7B5"/>
<path d="M115.022 198.361C117.61 199.952 120.895 200.073 123.87 200.792L132.95 202.703C139.03 204.017 145.021 205.711 150.889 207.775C153.838 208.866 156.684 210.215 159.394 211.807C162.248 213.362 164.586 215.716 166.118 218.58C169.082 224.172 170.101 230.589 169.016 236.822C169.401 230.701 167.962 224.603 164.88 219.299C161.894 214.083 155.833 211.697 150.226 209.542C144.463 207.436 138.597 205.622 132.651 204.106C126.746 202.283 120.386 201.455 115.022 198.361Z" fill="#1D0A01"/>
<path d="M103.343 218.956L101.396 217.906C101.85 217.077 112.456 197.609 123.074 193.93C125.031 193.245 128.15 192.45 131.767 191.543C142.207 188.892 159.682 184.472 160.423 178.959C160.743 176.55 157.348 174.097 154.45 172.462L155.556 170.54C160.71 173.445 163.033 176.296 162.635 179.257C161.706 186.251 144.729 190.549 132.331 193.676C128.769 194.582 125.695 195.366 123.815 196.007C114.027 199.41 103.453 218.768 103.343 218.956Z" fill="#1D0A01"/>
<path d="M98.9301 215.531L97.1826 214.172C97.7688 213.42 111.56 195.786 122.056 192.129C124.268 191.356 128.095 190.516 132.486 189.544C142.627 187.334 159.582 183.566 160.312 178.649C160.577 176.904 158.543 174.771 154.45 172.462L155.556 170.54C160.655 173.412 162.944 176.163 162.524 178.97C161.639 184.914 148.622 188.251 132.983 191.709C128.67 192.659 124.932 193.477 122.808 194.217C112.921 197.654 99.0738 215.354 98.9301 215.531Z" fill="#1D0A01"/>
<path d="M132.928 169.357C132.928 169.357 131.424 162.606 134.034 157.855C136.644 153.104 147.195 151.789 151.088 152.64C154.981 153.491 170.399 163.347 174.933 168.882C179.468 174.418 177.543 183.246 168.928 181.036C160.312 178.826 132.928 169.357 132.928 169.357Z" fill="#F2C7B5"/>
<path d="M167.589 162.275C173.871 165.59 182.974 174.727 175.077 181.124C169.835 184.174 162.723 178.738 157.448 177.611C160.887 177.986 164.15 179.301 167.401 180.185C170.387 181.025 174.192 181.533 175.884 178.373C179.423 172.219 171.914 165.866 167.589 162.275Z" fill="#1D0A01"/>
<path d="M127.232 157.568C127.232 157.568 130.55 151.525 135.704 149.702C140.858 147.879 149.595 153.878 151.951 157.082C154.307 160.286 159.317 177.876 159.04 185.025C158.764 192.174 151.464 197.532 146.454 190.196C141.444 182.859 127.232 157.568 127.232 157.568Z" fill="#F2C7B5"/>
<path d="M145.381 151.768C148.907 153.883 151.885 156.797 154.074 160.275C156.375 163.756 157.392 168.009 158.1 171.866C159.024 175.83 159.564 179.874 159.715 183.942C159.871 186.033 159.314 188.116 158.136 189.851C156.957 191.586 155.226 192.872 153.223 193.499C155.044 192.742 156.554 191.39 157.507 189.664C158.459 187.938 158.797 185.94 158.465 183.997C157.948 180.044 157.209 176.123 156.253 172.252C155.446 168.253 154.76 164.518 152.736 161.038C150.846 157.541 148.357 154.404 145.381 151.768Z" fill="#1D0A01"/>
<path d="M110.3 165.932C110.3 165.932 112.047 158.927 116.814 155.756C121.581 152.585 132.298 156.408 135.615 159.071C138.933 161.734 149.075 178.296 150.812 185.588C152.548 192.88 146.532 200.239 139.298 194.085C132.065 187.931 110.3 165.932 110.3 165.932Z" fill="#F2C7B5"/>
<path d="M127.376 155.358C131.605 156.6 135.494 158.792 138.745 161.767C142.063 164.695 144.275 168.772 146.155 172.495C148.218 176.278 149.918 180.248 151.232 184.351C151.985 186.419 151.998 188.684 151.268 190.761C150.538 192.838 149.11 194.598 147.228 195.742C148.901 194.507 150.088 192.726 150.585 190.708C151.082 188.691 150.857 186.563 149.949 184.693C148.328 180.8 146.481 177.004 144.419 173.324C142.45 169.468 140.681 165.8 137.628 162.839C134.671 159.77 131.201 157.239 127.376 155.358Z" fill="#1D0A01"/>
<path d="M94.5393 188.362C94.7605 182.462 97.2047 171.214 102.845 165.093C108.486 158.972 129.19 169.954 134.797 175.158C140.404 180.362 148.688 198.029 143.822 201.112C138.956 204.195 124.655 189.444 121.061 187.08C117.466 184.716 94.5393 188.362 94.5393 188.362Z" fill="#F2C7B5"/>
<path d="M107.767 191.886C110.432 188.627 114.513 186.052 119.037 186.472C123.638 187.113 126.779 190.549 130.097 193.168C133.415 195.786 136.434 199.057 140.05 200.902C141.875 201.708 143.8 202.007 144.12 200.261C144.517 198.302 144.471 196.279 143.988 194.339V194.438C142.769 190.546 141.211 186.767 139.332 183.146C137.418 179.566 135.184 176.163 131.91 173.887C128.58 171.577 125.053 169.562 121.37 167.866C117.684 166.046 113.964 164.367 110.211 162.827C117.953 165.369 125.695 168.131 132.751 172.661C136.412 174.926 138.867 178.672 140.869 182.296C142.856 185.995 144.514 189.863 145.824 193.853V193.908C146.377 196.177 146.377 198.545 145.824 200.814C145.614 201.491 145.233 202.104 144.718 202.592C144.156 203.071 143.443 203.337 142.705 203.344C141.483 203.364 140.276 203.071 139.199 202.493C135.195 200.283 132.176 197.201 129.035 194.306C125.894 191.411 122.808 188.118 118.827 187.433C114.845 186.748 110.665 188.825 107.767 191.886Z" fill="#1D0A01"/>
<path d="M105.71 335.29C99.5936 318.716 98.8416 297.723 127.077 233.64C130.981 224.801 194.022 232.115 192.75 242.401C190.24 262.555 172.942 294.884 166.03 305.314C148.589 331.61 109.857 346.504 105.71 335.29Z" fill="#F2C7B5"/>
<path d="M102.79 324.053C101.865 319.209 101.494 314.275 101.684 309.347C101.783 306.894 101.927 304.441 102.215 301.999C102.519 299.547 102.988 297.118 103.619 294.729C104.806 289.96 106.258 285.261 107.966 280.653C109.627 276.014 111.615 271.498 113.916 267.14C112.202 271.736 110.731 276.388 109.315 281.062C107.9 285.735 106.594 290.42 105.466 295.138C104.924 297.503 104.36 299.867 104.095 302.231C103.83 304.596 103.52 307.049 103.321 309.468C102.889 314.317 102.712 319.186 102.79 324.053Z" fill="#1D0A01"/>
<path d="M77.3524 368.127C64.5783 385.408 51.2512 405.461 48.0107 427.139C48.0107 427.46 48.4973 427.57 48.5748 427.25C50.0457 421.338 51.9342 415.537 54.2263 409.892C62.6207 407.583 70.8161 405.693 75.24 397.363C79.7413 388.8 79.1662 377.64 78.3146 368.315C78.2593 367.818 77.5736 367.796 77.3524 368.127Z" fill="#ED7223"/>
<path d="M54.3149 409.726C60.0549 396.865 67.4208 383.949 76.7884 373.375C76.8548 373.298 76.9543 373.375 76.888 373.475C70.7608 381.01 66.1046 389.208 61.548 397.561C65.7839 393.274 70.3958 389.429 74.4216 384.877C74.499 384.789 74.6207 384.877 74.5543 385.01C70.5728 389.783 66.2263 394.954 61.0503 398.489C59.6568 401.053 58.2522 403.631 56.8365 406.224C57.1794 406.025 57.5443 405.859 57.9425 405.682C58.0089 405.682 58.0641 405.737 57.9425 405.771C57.5443 405.97 57.1573 406.179 56.748 406.356C56.0734 407.572 55.4098 408.787 54.713 410.002C54.5692 410.234 54.1932 410.002 54.3149 409.726Z" fill="#1D0A01"/>
<path d="M58.5507 405.24C61.9885 403.322 65.2687 401.135 68.3608 398.699C68.4382 398.633 68.5599 398.754 68.4825 398.821C65.4845 401.397 62.2004 403.622 58.6945 405.45C58.5507 405.56 58.4291 405.328 58.5507 405.24Z" fill="#1D0A01"/>
<path d="M46.5067 423.913C46.5067 423.974 46.5311 424.033 46.5747 424.077C46.6182 424.12 46.6773 424.145 46.7389 424.145C46.8005 424.145 46.8596 424.12 46.9031 424.077C46.9467 424.033 46.9712 423.974 46.9712 423.913C47.0375 416.775 46.9712 409.549 47.0818 402.434C48.9177 398.743 52.8439 396.71 55.5757 393.749C57.5407 391.587 59.2514 389.207 60.6743 386.656C63.9595 380.561 65.9689 373.862 66.5802 366.967C67.3323 359.332 64.4346 334.14 61.2162 335.024C59.5462 335.477 54.1379 347.952 52.7002 352.073C50.3751 358.888 48.6724 365.9 47.6126 373.022C45.0025 389.761 45.279 407.008 46.5067 423.913Z" fill="#ED7223"/>
<path d="M46.4513 393.131C46.8384 384.104 48.8734 374.977 50.7868 366.216C52.8329 356.78 55.2107 347.896 60.0992 339.477C60.1876 339.323 60.4199 339.477 60.3425 339.621C57.1009 346.169 54.59 353.053 52.855 360.15C53.1868 359.641 53.5739 359.155 53.961 358.68C54.0937 358.481 54.4034 358.68 54.2706 358.857C53.8398 359.621 53.3322 360.339 52.7554 361C52.7554 361 52.7554 361 52.6891 361C51.019 367.74 49.8246 374.646 48.796 381.518L49.0172 381.253C49.0172 381.198 49.161 381.253 49.1278 381.341L48.7186 382.015C48.1988 385.518 47.7232 388.998 47.2366 392.457C53.4633 387.142 58.783 380.877 61.7803 373.154C58.8383 381.165 54.2153 388.28 47.0818 393.142L46.6836 395.937C46.6836 396.125 46.3518 396.07 46.3518 395.882C46.3518 395.064 46.3518 394.236 46.4292 393.418C46.4095 393.399 46.3943 393.375 46.3846 393.35C46.3749 393.324 46.371 393.296 46.3731 393.269C46.3752 393.242 46.3833 393.215 46.3968 393.191C46.4104 393.167 46.429 393.147 46.4513 393.131Z" fill="#1D0A01"/>
<path d="M49.3821 380.037C54.1268 372.944 58.5507 366.061 62.0677 358.216C62.0677 358.128 62.2558 358.216 62.2226 358.282C59.2917 366.016 55.1775 373.961 49.6254 380.225C49.5038 380.347 49.2826 380.181 49.3821 380.037Z" fill="#1D0A01"/>
<path d="M55.7084 356.448C57.6771 352.968 59.7563 349.576 61.6144 346.029C61.6144 345.93 61.8024 346.029 61.7581 346.118C60.2335 349.824 58.3048 353.352 56.007 356.636C55.9805 356.672 55.9413 356.696 55.8975 356.705C55.8537 356.713 55.8084 356.704 55.7707 356.68C55.7329 356.657 55.7056 356.62 55.694 356.577C55.6825 356.534 55.6876 356.488 55.7084 356.448Z" fill="#1D0A01"/>
<path d="M41.6624 403.273C41.5668 408.005 41.0074 412.716 39.9924 417.339C40.0698 417.847 40.1472 418.355 40.2136 418.874C41.6742 413.767 42.5207 408.504 42.7352 403.196C42.7759 403.123 42.7972 403.042 42.7972 402.958C42.7972 402.875 42.7759 402.794 42.7352 402.721C42.9377 395.607 42.4077 388.491 41.1536 381.485C38.9417 368.37 34.1085 355.785 24.951 345.952C24.8762 345.886 24.787 345.838 24.6905 345.812C24.594 345.787 24.4928 345.784 24.3951 345.805C24.2974 345.825 24.2057 345.868 24.1275 345.93C24.0493 345.992 23.9867 346.071 23.9446 346.162C20.2506 355.542 21.5335 366.746 24.6856 376.104C26.4177 381.173 28.8845 385.96 32.0072 390.313C35.115 394.722 39.1186 398.434 41.6624 403.273Z" fill="#ED7223"/>
<path d="M26.057 350.316C34.739 364.393 40.7776 381.076 41.5408 397.694C41.5408 397.992 41.0541 398.07 41.0099 397.76C40.8108 396.269 40.5786 394.788 40.3352 393.341C36.7408 389.904 33.0579 386.28 30.492 381.993C30.492 381.916 30.5473 381.828 30.6137 381.894C33.5923 385.551 36.7869 389.026 40.1804 392.302C39.55 388.623 38.82 385.01 37.9684 381.441L37.2827 380.634C37.1279 380.458 37.3823 380.204 37.5371 380.38L37.7473 380.612C36.5244 375.738 35.0102 370.942 33.2127 366.249C31.0008 363.619 28.5344 361.343 26.9197 358.172C26.9109 358.156 26.9089 358.137 26.914 358.119C26.9192 358.102 26.9312 358.087 26.9473 358.078C26.9635 358.069 26.9824 358.067 27.0001 358.072C27.0177 358.078 27.0325 358.09 27.0413 358.106C28.3353 359.918 29.5851 361.741 31.0561 363.42C31.6312 364.094 32.2837 364.724 32.8809 365.376C30.8868 360.274 28.5134 355.329 25.7805 350.581C25.7601 350.543 25.7527 350.499 25.7595 350.457C25.7663 350.414 25.7869 350.374 25.8182 350.344C25.8495 350.314 25.8898 350.295 25.9329 350.29C25.976 350.285 26.0196 350.294 26.057 350.316Z" fill="#1D0A01"/>
<path d="M27.8155 367.674C30.6247 371.453 33.821 375.043 36.42 378.944C36.4974 379.054 36.3316 379.176 36.2431 379.087C32.9028 375.689 29.9942 371.893 27.5832 367.784C27.5832 367.663 27.727 367.563 27.8155 367.674Z" fill="#1D0A01"/>
<path d="M36.8182 379.816L36.9399 379.938C37.0173 380.015 36.9399 380.148 36.8072 380.071L36.6855 379.949C36.6766 379.93 36.6737 379.91 36.6772 379.889C36.6807 379.869 36.6904 379.85 36.7049 379.836C36.7195 379.821 36.7382 379.812 36.7585 379.808C36.7788 379.805 36.7996 379.807 36.8182 379.816Z" fill="#1D0A01"/>
<path d="M12.4645 377.364C13.4874 385.224 16.6555 392.651 21.622 398.832C23.6665 401.255 26.1939 403.227 29.0431 404.621C32.2616 406.212 35.679 408.046 38.997 409.35C40.5742 413.375 41.7486 417.546 42.5029 421.802C42.6025 421.438 42.7131 421.062 42.8237 420.697C40.6891 402.367 28.8109 386.7 13.6258 376.646C13.5082 376.555 13.3659 376.503 13.2177 376.495C13.0696 376.488 12.9227 376.526 12.7966 376.604C12.6705 376.682 12.5712 376.796 12.5118 376.932C12.4525 377.068 12.436 377.218 12.4645 377.364Z" fill="#ED7223"/>
<path d="M17.7068 382.789C17.6072 382.689 17.7068 382.501 17.8616 382.579C26.2083 388.779 32.8632 396.974 37.2163 406.411C37.3269 406.654 36.9841 406.875 36.8403 406.632C36.1325 405.395 35.4136 404.19 34.6283 403.008C31.1555 402.356 27.8708 399.926 25.3049 397.605C25.2275 397.55 25.3049 397.44 25.4044 397.506C26.7313 398.731 28.2064 399.785 29.7952 400.644C31.1998 401.351 32.726 401.804 34.2191 402.378C32.9362 400.345 31.5942 398.386 30.1933 396.5C26.4694 395.052 22.9808 393.06 19.8413 390.589C19.7529 390.523 19.8413 390.357 19.9409 390.423C23.0762 392.318 26.3103 394.044 29.6293 395.594C27.5124 392.805 25.23 390.145 22.7943 387.628C21.6109 387.009 20.4164 386.391 19.2773 385.717C19.1777 385.717 19.2773 385.507 19.3547 385.54C20.2991 385.876 21.201 386.321 22.0422 386.866C20.6376 385.485 19.222 384.07 17.7068 382.789Z" fill="#1D0A01"/>
<path d="M18.0275 389.109C18.236 389.23 18.4323 389.37 18.6137 389.529C18.6137 389.529 18.6137 389.651 18.5473 389.628C18.3349 389.528 18.1314 389.409 17.939 389.275C17.8284 389.208 17.928 389.042 18.0275 389.109Z" fill="#1D0A01"/>
<path d="M66.4917 461.49H24.8736L28.2358 423.637L28.9768 415.284H62.3885L63.1296 423.637L66.4917 461.49Z" fill="#9D431C"/>
<path d="M63.1294 423.637L28.479 420.885L28.9767 415.284H62.3884L63.1294 423.637Z" fill="#5F270F"/>
<path d="M64.3903 409.45H26.986V417.714H64.3903V409.45Z" fill="#9D431C"/>
<path d="M12.4531 461.49C151.807 460.816 308.137 460.805 447.502 461.49C308.148 462.175 151.818 462.164 12.4531 461.49Z" fill="#1D0A01"/>
<path d="M371.72 59.5646C370.786 68.5462 367.37 77.0914 361.855 84.2458C356.34 91.4001 348.942 96.8817 340.489 100.078C332.035 103.275 322.859 104.061 313.984 102.349C305.109 100.636 296.885 96.4921 290.232 90.38L265.834 93.9598L278 72.8896C275.201 66.0303 274.005 58.6239 274.503 51.2335C275 43.8431 277.177 36.6632 280.869 30.2395C284.56 23.8159 289.669 18.3177 295.807 14.1627C301.945 10.0078 308.951 7.30557 316.291 6.26144C323.632 5.21732 331.114 5.85879 338.169 8.13709C345.224 10.4154 351.666 14.2705 357.005 19.4095C362.345 24.5485 366.442 30.836 368.984 37.7941C371.526 44.7522 372.447 52.1977 371.676 59.5646H371.72Z" fill="white"/>
<path d="M371.72 59.5645C370.781 68.545 367.374 77.0911 361.877 84.2588C360.511 86.0476 359.033 87.7488 357.453 89.3523C355.827 90.9036 354.109 92.3573 352.31 93.7056C348.725 96.4238 344.775 98.6256 340.576 100.247C336.359 101.915 331.929 102.986 327.415 103.429C325.161 103.633 322.895 103.677 320.635 103.561C318.371 103.502 316.116 103.265 313.889 102.854C304.895 101.202 296.539 97.0818 289.756 90.9544L290.331 91.1312L266 94.8657L264.23 95.142L265.126 93.5841L277.292 72.4696L277.236 73.2983C274.371 66.3152 273.151 58.7675 273.671 51.2384C274.191 43.7092 276.436 36.4003 280.234 29.8761C284.034 23.3777 289.255 17.8216 295.507 13.6232C301.748 9.48583 308.846 6.81286 316.268 5.80448C323.689 4.7961 331.244 5.47845 338.364 7.80042C345.413 10.1932 351.837 14.1307 357.166 19.3244C362.481 24.4946 366.553 30.8025 369.074 37.7728C371.595 44.7431 372.5 52.1941 371.72 59.5645ZM371.72 59.5645C372.502 52.2269 371.587 44.8079 369.045 37.8794C366.503 30.951 362.403 24.6982 357.06 19.6029C351.717 14.5077 345.275 10.7061 338.229 8.49125C331.183 6.27639 323.722 5.70739 316.421 6.82812C309.188 7.91019 302.299 10.6314 296.281 14.7833C290.321 18.9657 285.34 24.3903 281.682 30.6827C278.088 36.9999 275.974 44.049 275.5 51.2999C275.041 58.542 276.212 65.7948 278.929 72.5249L279.106 72.9668L278.873 73.3646L266.597 94.3575L265.723 93.0758L290.143 89.6617H290.475L290.718 89.8937C297.226 95.9725 305.299 100.123 314.032 101.882C316.219 102.328 318.438 102.598 320.668 102.688C327.365 103.157 334.083 102.178 340.366 99.8156C344.584 98.2986 348.553 96.165 352.145 93.4846C353.947 92.1559 355.668 90.7206 357.298 89.1866C358.877 87.6015 360.355 85.9188 361.722 84.1483C367.261 77.0318 370.721 68.5235 371.72 59.5645Z" fill="#1D0A01"/>
<path d="M340.576 62.846C335.978 68.9841 330.113 74.0634 323.378 77.7399C316.648 74.0613 310.787 68.9822 306.191 62.846C300.141 54.8355 300.44 42.3171 309.1 39.6433C318.678 36.638 323.378 51.0347 323.378 51.0347C323.378 51.0347 328.156 36.5496 337.667 39.6433C346.316 42.4055 346.648 54.8134 340.576 62.846Z" fill="#ED7223"/>
</svg>
